<svg width="54" height="54" viewBox="0 0 54 54" fill="none" xmlns="http://www.w3.org/2000/svg">
<path d="M12.5625 12.8945C16.5547 8.90234 21.3672 6.90625 27 6.90625C32.6328 6.90625 37.418 8.90234 41.3555 12.8945C45.3477 16.832 47.3438 21.6172 47.3438 27.25C47.3438 32.8828 45.3477 37.6953 41.3555 41.6875C37.418 45.625 32.6328 47.5938 27 47.5938C21.3672 47.5938 16.5547 45.625 12.5625 41.6875C8.625 37.6953 6.65625 32.8828 6.65625 27.25C6.65625 21.6172 8.625 16.832 12.5625 12.8945ZM38.8125 29.5469V24.9531C38.8125 24.2969 38.4844 23.9688 37.8281 23.9688H30.2812V16.4219C30.2812 15.7656 29.9531 15.4375 29.2969 15.4375H24.7031C24.0469 15.4375 23.7188 15.7656 23.7188 16.4219V23.9688H16.1719C15.5156 23.9688 15.1875 24.2969 15.1875 24.9531V29.5469C15.1875 30.2031 15.5156 30.5312 16.1719 30.5312H23.7188V38.0781C23.7188 38.7344 24.0469 39.0625 24.7031 39.0625H29.2969C29.9531 39.0625 30.2812 38.7344 30.2812 38.0781V30.5312H37.8281C38.4844 30.5312 38.8125 30.2031 38.8125 29.5469Z" fill="#CD3535"/>
<path d="M41.3555 12.8945L37.0837 17.1078L37.1127 17.1373L37.1422 17.1663L41.3555 12.8945ZM12.5625 41.6875L8.2907 45.9008L8.31976 45.9302L8.34922 45.9593L12.5625 41.6875ZM30.2812 23.9688H24.2812V29.9688H30.2812V23.9688ZM23.7188 23.9688V29.9688H29.7188V23.9688H23.7188ZM23.7188 30.5312H29.7188V24.5312H23.7188V30.5312ZM30.2812 30.5312V24.5312H24.2812V30.5312H30.2812ZM16.8051 17.1372C19.675 14.2673 22.9626 12.9062 27 12.9062V0.90625C19.7718 0.90625 13.4343 3.53741 8.31986 8.65189L16.8051 17.1372ZM27 12.9062C31.0354 12.9062 34.2795 14.2646 37.0837 17.1078L45.6273 8.68125C40.5565 3.54004 34.2302 0.90625 27 0.90625V12.9062ZM37.1422 17.1663C39.9854 19.9705 41.3438 23.2146 41.3438 27.25H53.3438C53.3438 20.0198 50.71 13.6935 45.5687 8.62273L37.1422 17.1663ZM41.3438 27.25C41.3438 31.2874 39.9827 34.575 37.1128 37.4449L45.5981 45.9301C50.7126 40.8157 53.3438 34.4782 53.3438 27.25H41.3438ZM37.1128 37.4449C34.3151 40.2426 31.0622 41.5938 27 41.5938V53.5938C34.2034 53.5938 40.5209 51.0074 45.5981 45.9301L37.1128 37.4449ZM27 41.5938C22.9361 41.5938 19.6395 40.2402 16.7758 37.4157L8.34922 45.9593C13.4699 51.0098 19.7983 53.5938 27 53.5938V41.5938ZM16.8343 37.4742C14.0098 34.6105 12.6562 31.3139 12.6562 27.25H0.65625C0.65625 34.4517 3.24018 40.7801 8.2907 45.9008L16.8343 37.4742ZM12.6562 27.25C12.6562 23.1878 14.0074 19.9349 16.8051 17.1372L8.31986 8.65189C3.24261 13.7291 0.65625 20.0466 0.65625 27.25H12.6562ZM44.8125 29.5469V24.9531H32.8125V29.5469H44.8125ZM44.8125 24.9531C44.8125 23.7001 44.4952 21.6583 42.809 19.9722C41.1229 18.2861 39.0811 17.9688 37.8281 17.9688V29.9688C37.2314 29.9688 35.6818 29.8155 34.3238 28.4575C32.9657 27.0995 32.8125 25.5499 32.8125 24.9531H44.8125ZM37.8281 17.9688H30.2812V29.9688H37.8281V17.9688ZM36.2812 23.9688V16.4219H24.2812V23.9688H36.2812ZM36.2812 16.4219C36.2812 15.1689 35.9639 13.1271 34.2778 11.441C32.5917 9.75481 30.5499 9.4375 29.2969 9.4375V21.4375C28.7001 21.4375 27.1505 21.2843 25.7925 19.9262C24.4345 18.5682 24.2812 17.0186 24.2812 16.4219H36.2812ZM29.2969 9.4375H24.7031V21.4375H29.2969V9.4375ZM24.7031 9.4375C23.4501 9.4375 21.4083 9.75481 19.7222 11.441C18.0361 13.1271 17.7188 15.1689 17.7188 16.4219H29.7188C29.7188 17.0186 29.5655 18.5682 28.2075 19.9262C26.8495 21.2843 25.2999 21.4375 24.7031 21.4375V9.4375ZM17.7188 16.4219V23.9688H29.7188V16.4219H17.7188ZM23.7188 17.9688H16.1719V29.9688H23.7188V17.9688ZM16.1719 17.9688C14.9189 17.9688 12.8771 18.2861 11.191 19.9722C9.50481 21.6583 9.1875 23.7001 9.1875 24.9531H21.1875C21.1875 25.5499 21.0343 27.0995 19.6762 28.4575C18.3182 29.8155 16.7686 29.9688 16.1719 29.9688V17.9688ZM9.1875 24.9531V29.5469H21.1875V24.9531H9.1875ZM9.1875 29.5469C9.1875 30.7999 9.50481 32.8417 11.191 34.5278C12.8771 36.2139 14.9189 36.5312 16.1719 36.5312V24.5312C16.7686 24.5312 18.3182 24.6845 19.6762 26.0425C21.0343 27.4005 21.1875 28.9501 21.1875 29.5469H9.1875ZM16.1719 36.5312H23.7188V24.5312H16.1719V36.5312ZM17.7188 30.5312V38.0781H29.7188V30.5312H17.7188ZM17.7188 38.0781C17.7188 39.3311 18.0361 41.3729 19.7222 43.059C21.4083 44.7452 23.4501 45.0625 24.7031 45.0625V33.0625C25.2999 33.0625 26.8495 33.2157 28.2075 34.5738C29.5655 35.9318 29.7188 37.4814 29.7188 38.0781H17.7188ZM24.7031 45.0625H29.2969V33.0625H24.7031V45.0625ZM29.2969 45.0625C30.5499 45.0625 32.5917 44.7452 34.2778 43.059C35.9639 41.3729 36.2812 39.3311 36.2812 38.0781H24.2812C24.2812 37.4814 24.4345 35.9318 25.7925 34.5738C27.1505 33.2157 28.7001 33.0625 29.2969 33.0625V45.0625ZM36.2812 38.0781V30.5312H24.2812V38.0781H36.2812ZM30.2812 36.5312H37.8281V24.5312H30.2812V36.5312ZM37.8281 36.5312C39.0811 36.5312 41.1229 36.2139 42.809 34.5278C44.4952 32.8417 44.8125 30.7999 44.8125 29.5469H32.8125C32.8125 28.9501 32.9657 27.4005 34.3238 26.0425C35.6818 24.6845 37.2314 24.5312 37.8281 24.5312V36.5312Z" fill="white"/>
</svg>
