<svg width="16" height="22" viewBox="0 0 16 22" fill="none" xmlns="http://www.w3.org/2000/svg">
<path d="M7.42383 11.166C7.66992 10.7559 7.71094 9.23828 7.3418 9.23828C7.25977 9.23828 7.21875 10.5098 7.42383 11.166ZM7.38281 13.0938C7.05469 13.9141 6.64453 14.8574 6.19336 15.6367C6.97266 15.3496 7.79297 14.9395 8.77734 14.7754C8.28516 14.3652 7.75195 13.791 7.38281 13.0938ZM3.52734 18.2207C3.52734 18.2207 4.06055 17.9746 4.96289 16.5391C4.67578 16.8262 3.73242 17.5645 3.52734 18.2207ZM10.1719 7.1875C9.59766 7.1875 9.1875 6.77734 9.1875 6.20312V0.625H0.984375C0.410156 0.625 0 1.07617 0 1.60938V20.6406C0 21.2148 0.410156 21.625 0.984375 21.625H14.7656C15.2988 21.625 15.75 21.2148 15.75 20.6406V7.1875H10.1719ZM9.84375 14.2422C10.623 14.1602 12.2637 13.9961 12.8379 14.5293C13.3301 15.0215 13.248 16.334 12.0176 16.334C11.3613 16.334 10.2949 16.0059 9.39258 15.5137C8.4082 15.6777 7.21875 16.1289 6.15234 16.498C5.12695 18.2617 4.38867 19 3.65039 19C3.44531 19 2.99414 18.877 2.78906 18.5898C2.00977 17.6465 3.89648 16.375 5.00391 15.8008C5.00391 15.8008 5.00391 15.8008 5.04492 15.8008C5.53711 14.9395 6.23438 13.4219 6.68555 12.2734C6.35742 10.9609 6.15234 9.89453 6.35742 9.11523C6.60352 8.33594 8.12109 8.21289 8.32617 9.40234C8.53125 10.1406 8.24414 11.2891 8.08008 12.0273C8.44922 13.0527 9.02344 13.75 9.84375 14.2422ZM15.4629 4.93164L11.4434 0.912109C11.2383 0.748047 10.9922 0.625 10.7461 0.625H10.5V5.875H15.75V5.62891C15.75 5.38281 15.627 5.13672 15.4629 4.93164ZM12.3867 15.4316C12.5918 15.3086 12.3047 14.9395 10.6641 15.0625C12.1816 15.7188 12.3867 15.4316 12.3867 15.4316Z" fill="#2D4193"/>
</svg>
