<svg width="49" height="14" viewBox="0 0 49 14" fill="none" xmlns="http://www.w3.org/2000/svg">
<path d="M6.18439 1.82898L1.96875 11.5058L5.51372 12.1765L6.18439 10.1645H9.25032L10.6875 12.2723H15.0947L17.49 10.7393L19.7894 12.2723L22.3763 10.7393L23.9093 12.2723H36.5562L38.8556 9.49379L42.1132 12.2723L46.233 11.5058L42.1132 7.19435L46.233 1.82898L42.1132 1.0625L38.8556 3.64937L37.8975 1.82898L22.3763 1.0625L19.7894 5.853L17.49 1.82898H12.9869L12.0288 3.64937L9.92099 1.82898H6.18439Z" fill="#26A6D1"/>
<path d="M5.52096 0.769531L0 12.9872H6.60936L7.42873 11.0392H9.30163L10.121 12.9872H17.396V11.5005L18.0443 12.9872H21.8075L22.4558 11.469V12.9872H37.5859L39.4257 11.0898L41.1483 12.9872L48.9195 13.0029L43.3811 6.91249L48.9195 0.769531H41.2689L39.478 2.63189L37.8095 0.769531H21.3499L19.9365 3.92303L18.49 0.769531H11.8944V2.20572L11.1607 0.769531C11.1607 0.769531 5.52096 0.769531 5.52096 0.769531ZM6.79983 2.50446H10.0215L13.6836 10.7894V2.50446H17.2129L20.0414 8.44469L22.6482 2.50446H26.1598V11.2715H24.023L24.0056 4.40169L20.8904 11.2715H18.979L15.8464 4.40169V11.2715H11.4506L10.6173 9.30602H6.11498L5.28335 11.2697H2.92815L6.79983 2.50446ZM28.1147 2.50446H36.8032L39.4605 5.37493L42.2036 2.50446H44.861L40.8233 6.91077L44.861 11.2663H42.083L39.4257 8.36248L36.6686 11.2663H28.1147V2.50446ZM8.3671 3.98779L6.88376 7.48908H9.8487L8.3671 3.98779ZM30.2603 4.31968V5.92009H35.0002V7.70388H30.2603V9.45108H35.5768L38.0471 6.87761L35.6816 4.31815H30.2603V4.31968Z" fill="white"/>
</svg>
