<svg width="76" height="20" viewBox="0 0 76 20" fill="none" xmlns="http://www.w3.org/2000/svg">
<path d="M9.30406 0.789062L0.875 19.4423H10.9658L12.2167 16.4682H15.0761L16.3271 19.4423H27.4342V17.1724L28.4239 19.4423H34.1694L35.1591 17.1244V19.4423H58.2588L61.0677 16.5454L63.6977 19.4423L75.5622 19.4663L67.1066 10.1678L75.5622 0.789062H63.8817L61.1475 3.63239L58.6003 0.789062H33.4708L31.3129 5.60362L29.1044 0.789062H19.0347V2.98175L17.9145 0.789062C17.9145 0.789062 9.30406 0.789062 9.30406 0.789062ZM11.2566 3.43784H16.1753L21.7663 16.0867V3.43784H27.1545L31.4729 12.507L35.4528 3.43784H40.8142V16.8228H37.5519L37.5253 6.33442L32.7692 16.8228H29.851L25.0683 6.33442V16.8228H18.3571L17.0848 13.822H10.211L8.94129 16.8201H5.34551L11.2566 3.43784ZM43.7988 3.43784H57.0638L61.1209 7.8203L65.3088 3.43784H69.3659L63.2015 10.1651L69.3659 16.8149H65.1248L61.0677 12.3815L56.8584 16.8149H43.7988V3.43784ZM13.6494 5.7025L11.3847 11.048H15.9114L13.6494 5.7025ZM47.0745 6.2092V8.65262H54.3111V11.376H47.0745V14.0435H55.1914L58.963 10.1145L55.3514 6.20687H47.0745V6.2092Z" fill="white"/>
</svg>
