<svg width="18" height="21" viewBox="0 0 18 21" fill="none" xmlns="http://www.w3.org/2000/svg">
<path opacity="0.5" d="M14.625 12.2188C16.6289 11.832 18 11.0938 18 10.25V8.77344C17.1562 9.33594 15.9609 9.72266 14.625 9.96875V12.2188ZM14.4492 8.87891C16.5586 8.49219 18 7.75391 18 6.875V5.39844C16.7344 6.27734 14.5898 6.73438 12.3398 6.875C13.3594 7.36719 14.1328 8.03516 14.4492 8.87891ZM18 3.5C18 2.26953 14.9766 1.25 11.25 1.25C7.52344 1.25 4.5 2.26953 4.5 3.5C4.5 4.76562 7.52344 5.75 11.25 5.75C14.9766 5.75 18 4.76562 18 3.5Z" fill="white"/>
<path d="M6.75 12.5C10.4766 12.5 13.5 11.2695 13.5 9.6875C13.5 8.14062 10.4766 6.875 6.75 6.875C3.02344 6.875 0 8.14062 0 9.6875C0 11.2695 3.02344 12.5 6.75 12.5ZM0 15.5234V17C0 18.2656 3.02344 19.25 6.75 19.25C10.4766 19.25 13.5 18.2656 13.5 17V15.5234C12.0234 16.543 9.38672 17 6.75 17C4.07812 17 1.44141 16.543 0 15.5234ZM0 11.832V13.625C0 14.8906 3.02344 15.875 6.75 15.875C10.4766 15.875 13.5 14.8906 13.5 13.625V11.832C12.0234 13.0273 9.38672 13.625 6.75 13.625C4.07812 13.625 1.44141 13.0273 0 11.832Z" fill="white"/>
</svg>
