<svg width="167" height="197" viewBox="0 0 167 197" fill="none" xmlns="http://www.w3.org/2000/svg">
<mask id="mask0" mask-type="alpha" maskUnits="userSpaceOnUse" x="-30" y="0" width="197" height="197">
<path d="M137.944 167.678C99.5329 206.028 37.2188 206.028 -1.19195 167.678C-39.6027 129.328 -39.6027 67.1125 -1.19195 28.7625C37.2188 -9.58751 99.5329 -9.58751 137.944 28.7625C176.354 67.15 176.354 129.328 137.944 167.678Z" fill="url(#paint0_linear)"/>
</mask>
<g mask="url(#mask0)">
<path d="M200.109 1.14453H-53.582V3.396H200.109V1.14453Z" fill="url(#paint1_linear)"/>
<path d="M200.109 12.4023H-53.582V14.6538H200.109V12.4023Z" fill="url(#paint2_linear)"/>
<path d="M200.109 23.6582H-53.582V25.9097H200.109V23.6582Z" fill="url(#paint3_linear)"/>
<path d="M200.109 34.916H-53.582V37.1675H200.109V34.916Z" fill="url(#paint4_linear)"/>
<path d="M200.109 46.1738H-53.582V48.4253H200.109V46.1738Z" fill="url(#paint5_linear)"/>
<path d="M200.109 57.4316H-53.582V59.6831H200.109V57.4316Z" fill="url(#paint6_linear)"/>
<path d="M200.109 68.6875H-53.582V70.939H200.109V68.6875Z" fill="url(#paint7_linear)"/>
<path d="M200.109 79.9453H-53.582V82.1968H200.109V79.9453Z" fill="url(#paint8_linear)"/>
<path d="M200.109 91.2031H-53.582V93.4546H200.109V91.2031Z" fill="url(#paint9_linear)"/>
<path d="M200.109 102.461H-53.582V104.712H200.109V102.461Z" fill="url(#paint10_linear)"/>
<path d="M200.109 113.719H-53.582V115.97H200.109V113.719Z" fill="url(#paint11_linear)"/>
<path d="M200.109 124.975H-53.582V127.226H200.109V124.975Z" fill="url(#paint12_linear)"/>
<path d="M200.109 136.232H-53.582V138.484H200.109V136.232Z" fill="url(#paint13_linear)"/>
<path d="M200.109 147.49H-53.582V149.742H200.109V147.49Z" fill="url(#paint14_linear)"/>
<path d="M200.109 158.748H-53.582V161H200.109V158.748Z" fill="url(#paint15_linear)"/>
<path d="M200.109 170.004H-53.582V172.255H200.109V170.004Z" fill="url(#paint16_linear)"/>
<path d="M200.109 181.262H-53.582V183.513H200.109V181.262Z" fill="url(#paint17_linear)"/>
<path d="M200.109 192.52H-53.582V194.771H200.109V192.52Z" fill="url(#paint18_linear)"/>
</g>
<defs>
<linearGradient id="paint0_linear" x1="-30.0083" y1="98.2354" x2="166.749" y2="98.2354" gradientUnits="userSpaceOnUse">
<stop stop-color="white"/>
<stop offset="1" stop-color="white" stop-opacity="0"/>
</linearGradient>
<linearGradient id="paint1_linear" x1="73.2636" y1="1.14453" x2="73.2636" y2="3.396" gradientUnits="userSpaceOnUse">
<stop stop-color="white" stop-opacity="0.77"/>
<stop offset="1" stop-color="white" stop-opacity="0"/>
</linearGradient>
<linearGradient id="paint2_linear" x1="73.2636" y1="12.4023" x2="73.2636" y2="14.6538" gradientUnits="userSpaceOnUse">
<stop stop-color="white" stop-opacity="0.77"/>
<stop offset="1" stop-color="white" stop-opacity="0"/>
</linearGradient>
<linearGradient id="paint3_linear" x1="73.2636" y1="23.6582" x2="73.2636" y2="25.9097" gradientUnits="userSpaceOnUse">
<stop stop-color="white" stop-opacity="0.77"/>
<stop offset="1" stop-color="white" stop-opacity="0"/>
</linearGradient>
<linearGradient id="paint4_linear" x1="73.2636" y1="34.916" x2="73.2636" y2="37.1675" gradientUnits="userSpaceOnUse">
<stop stop-color="white" stop-opacity="0.77"/>
<stop offset="1" stop-color="white" stop-opacity="0"/>
</linearGradient>
<linearGradient id="paint5_linear" x1="73.2636" y1="46.1738" x2="73.2636" y2="48.4253" gradientUnits="userSpaceOnUse">
<stop stop-color="white" stop-opacity="0.77"/>
<stop offset="1" stop-color="white" stop-opacity="0"/>
</linearGradient>
<linearGradient id="paint6_linear" x1="73.2636" y1="57.4316" x2="73.2636" y2="59.6831" gradientUnits="userSpaceOnUse">
<stop stop-color="white" stop-opacity="0.77"/>
<stop offset="1" stop-color="white" stop-opacity="0"/>
</linearGradient>
<linearGradient id="paint7_linear" x1="73.2636" y1="68.6875" x2="73.2636" y2="70.939" gradientUnits="userSpaceOnUse">
<stop stop-color="white" stop-opacity="0.77"/>
<stop offset="1" stop-color="white" stop-opacity="0"/>
</linearGradient>
<linearGradient id="paint8_linear" x1="73.2636" y1="79.9453" x2="73.2636" y2="82.1968" gradientUnits="userSpaceOnUse">
<stop stop-color="white" stop-opacity="0.77"/>
<stop offset="1" stop-color="white" stop-opacity="0"/>
</linearGradient>
<linearGradient id="paint9_linear" x1="73.2636" y1="91.2031" x2="73.2636" y2="93.4546" gradientUnits="userSpaceOnUse">
<stop stop-color="white" stop-opacity="0.77"/>
<stop offset="1" stop-color="white" stop-opacity="0"/>
</linearGradient>
<linearGradient id="paint10_linear" x1="73.2636" y1="102.461" x2="73.2636" y2="104.712" gradientUnits="userSpaceOnUse">
<stop stop-color="white" stop-opacity="0.77"/>
<stop offset="1" stop-color="white" stop-opacity="0"/>
</linearGradient>
<linearGradient id="paint11_linear" x1="73.2636" y1="113.719" x2="73.2636" y2="115.97" gradientUnits="userSpaceOnUse">
<stop stop-color="white" stop-opacity="0.77"/>
<stop offset="1" stop-color="white" stop-opacity="0"/>
</linearGradient>
<linearGradient id="paint12_linear" x1="73.2636" y1="124.975" x2="73.2636" y2="127.226" gradientUnits="userSpaceOnUse">
<stop stop-color="white" stop-opacity="0.77"/>
<stop offset="1" stop-color="white" stop-opacity="0"/>
</linearGradient>
<linearGradient id="paint13_linear" x1="73.2636" y1="136.232" x2="73.2636" y2="138.484" gradientUnits="userSpaceOnUse">
<stop stop-color="white" stop-opacity="0.77"/>
<stop offset="1" stop-color="white" stop-opacity="0"/>
</linearGradient>
<linearGradient id="paint14_linear" x1="73.2636" y1="147.49" x2="73.2636" y2="149.742" gradientUnits="userSpaceOnUse">
<stop stop-color="white" stop-opacity="0.77"/>
<stop offset="1" stop-color="white" stop-opacity="0"/>
</linearGradient>
<linearGradient id="paint15_linear" x1="73.2636" y1="158.748" x2="73.2636" y2="161" gradientUnits="userSpaceOnUse">
<stop stop-color="white" stop-opacity="0.77"/>
<stop offset="1" stop-color="white" stop-opacity="0"/>
</linearGradient>
<linearGradient id="paint16_linear" x1="73.2636" y1="170.004" x2="73.2636" y2="172.255" gradientUnits="userSpaceOnUse">
<stop stop-color="white" stop-opacity="0.77"/>
<stop offset="1" stop-color="white" stop-opacity="0"/>
</linearGradient>
<linearGradient id="paint17_linear" x1="73.2636" y1="181.262" x2="73.2636" y2="183.513" gradientUnits="userSpaceOnUse">
<stop stop-color="white" stop-opacity="0.77"/>
<stop offset="1" stop-color="white" stop-opacity="0"/>
</linearGradient>
<linearGradient id="paint18_linear" x1="73.2636" y1="192.52" x2="73.2636" y2="194.771" gradientUnits="userSpaceOnUse">
<stop stop-color="white" stop-opacity="0.77"/>
<stop offset="1" stop-color="white" stop-opacity="0"/>
</linearGradient>
</defs>
</svg>
