<svg width="197" height="77" viewBox="0 0 197 77" fill="none" xmlns="http://www.w3.org/2000/svg">
<path d="M230.109 1.14453H-23.582V3.396H230.109V1.14453Z" fill="url(#paint0_linear)"/>
<path d="M230.109 12.4023H-23.582V14.6538H230.109V12.4023Z" fill="url(#paint1_linear)"/>
<path d="M230.109 23.6582H-23.582V25.9097H230.109V23.6582Z" fill="url(#paint2_linear)"/>
<path d="M230.109 34.916H-23.582V37.1675H230.109V34.916Z" fill="url(#paint3_linear)"/>
<path d="M230.109 46.1738H-23.582V48.4253H230.109V46.1738Z" fill="url(#paint4_linear)"/>
<path d="M230.109 57.4316H-23.582V59.6831H230.109V57.4316Z" fill="url(#paint5_linear)"/>
<path d="M230.109 68.6875H-23.582V70.939H230.109V68.6875Z" fill="url(#paint6_linear)"/>
<defs>
<linearGradient id="paint0_linear" x1="103.264" y1="1.14453" x2="103.264" y2="3.396" gradientUnits="userSpaceOnUse">
<stop stop-color="white" stop-opacity="0.77"/>
<stop offset="1" stop-color="white" stop-opacity="0"/>
</linearGradient>
<linearGradient id="paint1_linear" x1="103.264" y1="12.4023" x2="103.264" y2="14.6538" gradientUnits="userSpaceOnUse">
<stop stop-color="white" stop-opacity="0.77"/>
<stop offset="1" stop-color="white" stop-opacity="0"/>
</linearGradient>
<linearGradient id="paint2_linear" x1="103.264" y1="23.6582" x2="103.264" y2="25.9097" gradientUnits="userSpaceOnUse">
<stop stop-color="white" stop-opacity="0.77"/>
<stop offset="1" stop-color="white" stop-opacity="0"/>
</linearGradient>
<linearGradient id="paint3_linear" x1="103.264" y1="34.916" x2="103.264" y2="37.1675" gradientUnits="userSpaceOnUse">
<stop stop-color="white" stop-opacity="0.77"/>
<stop offset="1" stop-color="white" stop-opacity="0"/>
</linearGradient>
<linearGradient id="paint4_linear" x1="103.264" y1="46.1738" x2="103.264" y2="48.4253" gradientUnits="userSpaceOnUse">
<stop stop-color="white" stop-opacity="0.77"/>
<stop offset="1" stop-color="white" stop-opacity="0"/>
</linearGradient>
<linearGradient id="paint5_linear" x1="103.264" y1="57.4316" x2="103.264" y2="59.6831" gradientUnits="userSpaceOnUse">
<stop stop-color="white" stop-opacity="0.77"/>
<stop offset="1" stop-color="white" stop-opacity="0"/>
</linearGradient>
<linearGradient id="paint6_linear" x1="103.264" y1="68.6875" x2="103.264" y2="70.939" gradientUnits="userSpaceOnUse">
<stop stop-color="white" stop-opacity="0.77"/>
<stop offset="1" stop-color="white" stop-opacity="0"/>
</linearGradient>
</defs>
</svg>
