<svg width="19" height="19" viewBox="0 0 19 19" fill="none" xmlns="http://www.w3.org/2000/svg">
<path d="M17.7188 14.5234L17.8945 13.6797C17.9297 13.6094 17.9297 13.5391 17.9297 13.4688C17.9297 13.0117 17.543 12.6602 17.0859 12.625H7.66406L5.27344 0.953125C5.16797 0.566406 4.81641 0.285156 4.42969 0.25H0.84375C0.351562 0.25 0 0.636719 0 1.09375V1.65625C0 2.14844 0.351562 2.5 0.84375 2.5H3.26953L5.76562 14.5938C5.20312 14.9102 4.74609 15.6836 4.74609 16.3164C4.74609 17.3711 5.66016 18.2852 6.71484 18.2852C7.80469 18.2852 8.68359 17.3711 8.68359 16.3164C8.68359 15.8594 8.4375 15.2266 8.12109 14.875H15.4688C15.1523 15.2266 14.9062 15.8594 14.9062 16.3164C14.9062 17.3711 15.7852 18.2852 16.875 18.2852C17.9297 18.2852 18.8438 17.3711 18.8438 16.3164C18.8438 15.6133 18.3164 14.8398 17.7188 14.5234ZM12.6211 9.70703C12.6914 9.77734 12.832 9.8125 12.9375 9.8125C13.0078 9.8125 13.1484 9.77734 13.2188 9.70703L15.6094 7.17578C15.8906 6.89453 15.6797 6.4375 15.293 6.4375H13.7812V4.60938C13.7812 4.39844 13.5703 4.1875 13.3594 4.1875H12.4805C12.2695 4.1875 12.0586 4.39844 12.0586 4.60938V6.4375H10.5469C10.1602 6.4375 9.94922 6.89453 10.2305 7.17578L12.6211 9.70703Z" fill="white"/>
</svg>
