<svg width="14" height="14" viewBox="0 0 14 14" fill="none" xmlns="http://www.w3.org/2000/svg">
<path d="M8.35352 7.125L12.5781 2.94141L13.4395 2.08008C13.5625 1.95703 13.5625 1.75195 13.4395 1.58789L12.5371 0.685547C12.373 0.5625 12.168 0.5625 12.0449 0.685547L7 5.77148L1.91406 0.685547C1.79102 0.5625 1.58594 0.5625 1.42188 0.685547L0.519531 1.58789C0.396484 1.75195 0.396484 1.95703 0.519531 2.08008L5.60547 7.125L0.519531 12.2109C0.396484 12.334 0.396484 12.5391 0.519531 12.7031L1.42188 13.6055C1.58594 13.7285 1.79102 13.7285 1.91406 13.6055L7 8.51953L11.1836 12.7441L12.0449 13.6055C12.168 13.7285 12.373 13.7285 12.5371 13.6055L13.4395 12.7031C13.5625 12.5391 13.5625 12.334 13.4395 12.2109L8.35352 7.125Z" fill="black"/>
</svg>
