<svg width="48" height="42" viewBox="0 0 48 42" fill="none" xmlns="http://www.w3.org/2000/svg">
<path d="M43.5 0H31.5C28.9688 0 27 2.0625 27 4.5V16.5C27 19.0312 28.9688 21 31.5 21H39V27C38.9062 30.375 36.2812 33 33 33H32.25H32.1562C30.9375 33 30 34.0312 30 35.25V39.75V39.8438C30 41.0625 30.9375 42 32.1562 42H33C41.25 42 48 35.3438 48 27V4.5C48 2.0625 45.9375 0 43.5 0Z" fill="#E83136"/>
<path opacity="0.5" d="M16.5 0H4.5C1.96875 0 0 2.0625 0 4.5V16.5C0 19.0312 1.96875 21 4.5 21H12V27C11.9062 30.375 9.28125 33 6 33H5.25H5.15625C3.9375 33 3 34.0312 3 35.25V39.75V39.8438C3 41.0625 3.9375 42 5.15625 42H6C14.25 42 21 35.3438 21 27V4.5C21 2.0625 18.9375 0 16.5 0Z" fill="#E83136"/>
</svg>
