<svg width="373" height="502" viewBox="0 0 373 502" fill="none" xmlns="http://www.w3.org/2000/svg">
<g opacity="0.2">
<path opacity="0.2" d="M-1130.79 690.705L-1130.94 690.807C-1100.25 728.206 -1069.27 760.068 -1038.89 785.59C-1010.69 809.244 -982.82 827.57 -955.933 840.258C-930.999 852.016 -906.912 858.804 -884.395 860.363C-863.291 861.923 -843.817 858.95 -826.443 851.551C-801.844 841.088 -782.257 822.013 -770.044 796.404C-757.853 770.919 -753.477 740.298 -757.247 707.823C-761.894 667.673 -760.773 631.905 -755.531 600.027C-761.253 633.873 -761.847 669.93 -757.496 707.778C-749.783 773.917 -776.981 830.223 -826.596 851.331C-862.722 866.651 -907.476 862.685 -955.94 839.936C-1012.24 813.589 -1071.14 763.328 -1130.79 690.705ZM-627.956 399.775C-633.528 403.651 -638.998 407.674 -644.241 411.866C-664.804 428.132 -682.991 446.561 -698.341 466.722C-705.653 476.386 -712.461 486.463 -718.515 496.996C-696.915 460.171 -669.747 432.443 -644.015 412.036C-529.639 321.681 -346.598 303.134 -177.743 364.76C-142.225 377.657 -108.406 387.486 -77.1647 393.766C-57.025 397.85 -37.6584 400.51 -19.0871 401.871C-66.0607 398.468 -118.748 386.069 -177.647 364.584C-261.274 334.141 -349.347 322.486 -432.242 331.1C-507.051 338.668 -574.214 362.39 -627.956 399.775ZM358.751 -207.477C344.161 -197.328 332.859 -176.822 323.545 -144.073C313.582 -109.13 306.796 -63.2072 299.645 -14.524C279.673 120.359 255.03 287.159 146.887 362.387C142.854 365.192 138.646 367.901 134.336 370.463C105.242 387.759 72.3119 398.132 35.0471 401.491C49.8681 400.119 63.9739 397.719 77.4375 394.239C97.9041 388.94 117.051 380.962 134.438 370.61C253.357 299.768 279.135 125.529 299.843 -14.5524C307.044 -63.1622 313.853 -109.209 323.743 -144.102C334.745 -182.712 348.481 -204.257 367.041 -211.827C387.125 -220.021 413.201 -211.782 446.717 -186.592L446.813 -186.768C413.246 -212.031 387.045 -220.293 367.012 -212.025C364.037 -210.827 361.391 -209.313 358.751 -207.477Z" fill="#DB1220"/>
</g>
<g opacity="0.2258">
<path opacity="0.2258" d="M-1126.42 698.241L-1126.64 698.394C-1096.31 735.279 -1065.69 766.626 -1035.57 791.781C-1007.69 815.118 -979.975 833.224 -953.292 845.619C-905.106 868.125 -860.33 871.966 -823.927 856.889C-798.903 846.567 -778.943 827.559 -766.085 801.938C-753.397 776.543 -748.326 745.984 -751.524 713.547C-766.437 560.42 -718.197 453.506 -603.928 386.77C-496.654 324.681 -339.827 318.811 -184.256 371.038C-148.333 383.109 -114.285 392.015 -83.0639 397.329C-52.7865 402.536 -24.2821 404.725 1.77643 403.711C26.8684 402.715 50.4876 398.82 71.8139 391.942C92.3783 385.375 111.521 375.983 128.75 363.998C128.97 363.845 129.117 363.743 129.337 363.59C243.346 284.281 274.118 120.194 298.938 -11.6304C307.739 -58.4099 316.074 -102.576 327.037 -135.926C339.141 -172.795 353.467 -193.334 372.086 -200.508C392.499 -208.386 418.502 -200.097 451.565 -175.245L451.733 -175.472C418.495 -200.419 392.419 -208.658 372.006 -200.78C353.314 -193.554 338.915 -172.965 326.861 -136.022C315.898 -102.672 307.564 -58.5058 298.814 -11.6528C273.994 120.172 243.222 284.259 129.359 363.465C129.139 363.618 128.993 363.72 128.773 363.873C55.6749 414.723 -46.5638 416.955 -183.962 370.834C-258.653 345.728 -336.373 333.63 -408.69 335.867C-445.306 337.031 -480.311 341.762 -512.74 350.041C-546.105 358.536 -576.814 370.851 -603.884 386.521C-631.416 402.621 -655.402 421.159 -675.131 441.751C-695.542 462.926 -712.101 486.98 -724.499 513.262C-737.206 540.195 -745.951 570.477 -750.506 603.184C-755.122 636.588 -755.52 673.707 -751.649 713.524C-745.203 779.563 -773.593 835.719 -823.86 856.516C-860.19 871.542 -904.893 867.65 -953.028 845.217C-1009.14 819.289 -1067.41 769.784 -1126.42 698.241Z" fill="#DB1220"/>
</g>
<g opacity="0.2516">
<path opacity="0.2516" d="M-1122.05 705.771L-1122.27 705.924C-1092.27 742.17 -1061.98 773.201 -1032.17 797.916C-1004.55 820.885 -977.033 838.697 -950.526 850.996C-902.595 873.135 -857.892 877.027 -821.212 862.193C-795.815 851.938 -775.357 833.02 -762.002 807.489C-748.815 782.184 -743.196 751.788 -745.75 719.338C-750.932 654.491 -748.413 601.182 -737.024 556.09C-741.105 572.118 -744.121 589.367 -746.07 607.836C-749.483 640.621 -749.499 677.038 -746.072 719.345C-740.842 785.357 -770.352 841.31 -821.343 861.848C-857.95 876.632 -902.529 872.762 -950.408 850.696C-1006.05 824.982 -1063.8 776.213 -1122.05 705.771ZM-629.954 404.873C-650.116 418.898 -667.161 433.807 -681.75 450.059C-691.685 461.113 -700.246 472.736 -707.849 485.11C-689.072 454.39 -663.38 428.452 -630.094 405.297C-624.961 401.727 -619.654 398.252 -614.221 394.801C-515.396 332.922 -357.119 326.478 -190.71 377.706C-154.858 388.737 -121.131 396.558 -90.3467 401.085C-60.1848 405.501 -31.8469 406.825 -6.2261 405.025C18.8748 403.26 42.2029 398.478 63.3627 390.734C83.8336 383.252 102.978 372.768 120.035 359.595C169.766 321.294 208.859 265.978 239.676 190.477C266.387 125.026 282.733 54.6857 297.145 -7.33244C307.59 -52.5306 317.518 -95.1886 329.723 -127.222C343.098 -162.578 358.089 -182.162 376.838 -188.991C397.58 -196.553 423.707 -188.241 456.492 -163.632L456.661 -163.859C423.824 -188.541 397.646 -196.927 376.758 -189.263C357.884 -182.456 342.872 -162.747 329.423 -127.341C317.269 -95.2335 307.342 -52.5755 296.896 -7.37742C267.822 117.706 231.671 273.435 119.933 359.448C48.9209 414.078 -52.6225 419.969 -190.614 377.531C-268.829 353.459 -347.882 341.634 -419.194 343.281C-456.783 344.142 -492.088 348.754 -524.121 356.976C-557.832 365.602 -588.16 378.307 -614.324 394.654C-619.66 397.93 -624.895 401.353 -629.954 404.873Z" fill="#DB1220"/>
</g>
<g opacity="0.2774">
<path opacity="0.2774" d="M-1117.73 713.236L-1118.02 713.44C-1088.38 749.172 -1058.45 779.689 -1028.89 804.036C-1019.43 811.845 -1009.94 819.083 -1000.53 825.727C-1035.6 800.963 -1074.81 764.916 -1117.73 713.236ZM-629.682 405.89C-679.391 440.47 -709.09 477.697 -725.596 525.912C-741.822 573.279 -746.294 632.851 -740.597 725.027C-736.487 790.837 -767.19 846.639 -818.854 866.992C-842.14 876.214 -890.04 885.555 -957.802 851.487C-954.496 853.111 -951.19 854.736 -947.935 856.287C-900.333 878.109 -855.681 881.928 -818.723 867.336C-792.953 857.149 -771.997 838.321 -758.144 812.879C-744.409 787.737 -738.27 757.307 -740.275 725.021C-751.4 545.279 -724.397 469.924 -624.345 402.614C-532.241 340.614 -376.547 333.897 -197.119 384.134C-161.463 394.102 -128.026 401.035 -97.6577 404.653C-67.6113 408.277 -39.5644 408.713 -14.1325 406.173C10.853 403.616 34.139 397.991 55.0077 389.36C75.4587 380.911 94.5324 369.386 111.489 354.975C159.901 313.995 199.191 258.65 231.672 185.697C259.769 122.552 278.406 56.2864 294.751 -2.17129C320.107 -92.4041 340.102 -163.756 381.635 -177.715C402.881 -184.865 429.008 -176.552 461.443 -152.136L461.685 -152.413C429.126 -176.852 402.948 -185.238 381.504 -178.06C376.998 -176.56 372.755 -174.371 368.722 -171.566C335.363 -148.36 317.056 -82.8699 294.377 -2.23864C261.24 115.752 220.048 262.671 111.262 354.805C41.2879 414.055 -56.6164 423.3 -197.097 384.01C-279.23 361.03 -359.616 349.478 -429.551 350.603C-468.062 351.232 -503.594 355.675 -535.356 363.818C-569.337 372.523 -599.337 385.544 -624.594 402.569C-626.236 403.493 -627.922 404.666 -629.682 405.89Z" fill="#DB1220"/>
</g>
<g opacity="0.3032">
<path opacity="0.3032" d="M-1113.36 720.766L-1113.66 720.97C-1084.37 756.188 -1054.8 786.191 -1025.55 810.097C-998.386 832.406 -971.355 849.681 -945.103 861.613C-897.757 883.068 -853.105 886.887 -815.993 872.516C-789.924 862.447 -768.47 843.708 -754.097 818.232C-739.865 793.18 -733.176 762.912 -734.611 730.665C-742.547 556.445 -735.918 483.708 -634.602 410.396C-587.632 376.414 -522.078 358.825 -439.741 358.011C-370.986 357.38 -291.506 368.254 -203.463 390.502C-62.6382 426.065 34.7464 413.257 103.03 350.17C149.858 306.913 189.03 251.868 222.86 181.792C252.175 121.179 272.904 59.0167 291.159 4.24396C320.575 -83.9074 343.729 -153.533 386.293 -166.792C408.117 -173.58 434.346 -165.121 466.502 -140.947L466.745 -141.225C434.537 -165.472 408.11 -173.903 386.162 -167.137C380.865 -165.523 375.91 -162.949 371.218 -159.685C337.639 -136.326 316.606 -73.1899 290.859 4.12557C253.952 114.82 208.035 252.6 102.826 349.876C34.6154 412.913 -62.6448 425.743 -203.323 390.078C-291.338 368.028 -370.868 357.08 -439.697 357.762C-520.298 358.568 -584.826 375.443 -631.602 407.982C-632.629 408.696 -633.729 409.461 -634.755 410.175C-685.413 446.832 -712.723 483.269 -726.017 532.193C-738.942 579.77 -739.114 638.641 -734.933 730.671C-731.964 796.404 -763.838 851.931 -816.124 872.171C-853.163 886.491 -897.69 882.695 -944.912 861.262C-999.815 836.452 -1056.47 789.1 -1113.36 720.766Z" fill="#DB1220"/>
</g>
<g opacity="0.329">
<path opacity="0.329" d="M-1108.99 728.298L-1109.35 728.553C-1053.12 795.932 -996.979 842.549 -942.405 867.043C-895.314 888.131 -850.714 891.876 -813.324 877.748C-786.881 867.746 -764.981 849.024 -750.06 823.711C-735.329 798.749 -728.07 768.52 -729.029 736.487C-729.42 723.57 -729.797 711.298 -730.241 699.399C-734.979 546.824 -736.801 489.777 -644.692 418.4C-599.821 383.589 -534.296 365.803 -450.064 365.523C-383.557 365.257 -304.956 375.652 -209.911 397.172C-138.555 413.261 -79.6995 417.01 -29.993 408.701C19.8603 400.291 60.5869 379.699 94.3933 345.718C195.232 244.506 245.384 116.097 285.695 12.9542C319.743 -74.1684 346.607 -142.996 390.575 -155.488C413.101 -161.893 439.506 -153.338 471.436 -129.333L471.678 -129.611C439.697 -153.689 413.043 -162.288 390.444 -155.832C370.086 -150.064 352.207 -132.286 334.211 -99.8201C317.765 -70.2859 302.67 -31.7721 285.344 12.7624C245.033 115.905 194.955 244.263 94.0645 345.402C27.4204 412.254 -69.1733 428.544 -209.896 396.725C-304.94 375.205 -383.491 364.884 -450.049 365.076C-490.206 365.216 -526.44 369.276 -557.66 377.259C-592.037 386.022 -621.452 399.726 -645.021 418.083C-690.698 453.455 -713.562 485.492 -724.201 528.535C-734.655 570.906 -733.003 622.077 -730.439 699.427C-730.046 711.253 -729.668 723.525 -729.227 736.516C-727.326 802.12 -760.32 857.445 -813.331 877.425C-850.574 891.452 -895.123 887.78 -942.09 866.714C-996.714 842.147 -1052.81 795.603 -1108.99 728.298Z" fill="#DB1220"/>
</g>
<g opacity="0.3548">
<path opacity="0.3548" d="M-1104.62 735.835L-1104.99 736.09C-1049.52 802.368 -993.89 848.25 -939.572 872.377C-892.758 893.222 -848.135 896.843 -810.593 882.935C-783.776 873.001 -761.379 854.368 -745.886 829.094C-730.658 804.222 -722.85 774.157 -723.311 742.213C-723.773 706.673 -725.123 676.111 -726.297 649.243C-731.134 537.503 -733.205 491.202 -654.969 426.314C-611.391 390.114 -547.792 372.686 -460.45 372.968C-379.653 373.225 -291.676 388.652 -216.276 403.673C-145.157 417.856 -86.8324 419.903 -37.9279 409.972C11.841 399.876 52.4033 377.328 85.9142 341.046C181.186 237.93 234.714 119.379 277.791 24.1228C298.156 -20.891 315.698 -59.7983 334.128 -89.2957C354.261 -121.505 373.509 -139.035 394.715 -144.522C417.994 -150.47 444.823 -141.774 476.526 -117.939L476.791 -118.341C444.912 -142.272 418.032 -151.041 394.606 -144.992C373.275 -139.527 353.955 -121.945 333.725 -89.5609C315.222 -60.0125 297.681 -21.1052 277.389 23.8575C234.385 119.063 180.784 237.664 85.5855 340.729C19.4367 412.36 -73.6491 431.66 -216.187 403.175C-291.587 388.155 -379.564 372.727 -460.361 372.47C-501.367 372.329 -537.828 376.219 -568.776 384.123C-603.277 392.863 -632.313 406.957 -655.151 425.895C-674.747 442.143 -689.406 457.354 -700.053 472.391C-710.604 487.252 -717.656 502.294 -722.106 519.669C-730.807 553.299 -729.06 593.503 -726.597 649.124C-725.423 675.993 -724.073 706.555 -723.611 742.095C-722.707 807.52 -756.871 862.569 -810.628 882.415C-848.098 896.272 -892.647 892.6 -939.285 871.851C-993.625 847.848 -1049.21 802.039 -1104.62 735.835Z" fill="#DB1220"/>
</g>
<g opacity="0.3806">
<path opacity="0.3806" d="M-650.036 421.676C-655.462 425.451 -660.61 429.468 -665.429 433.801C-698.537 463.154 -715.603 487.888 -722.72 516.6C-729.63 544.515 -727.22 575.975 -723.744 619.446C-721.141 653.06 -717.874 694.824 -717.991 747.988C-718.132 813.159 -753.365 868.08 -807.795 887.74C-845.492 901.428 -889.917 897.778 -936.423 877.374C-990.362 853.637 -1045.43 808.563 -1100.13 743.387L-1100.5 743.642C-1045.87 808.869 -990.677 853.965 -936.739 877.702C-890.181 898.18 -845.558 901.801 -807.789 888.063C-780.599 878.196 -757.704 859.653 -741.714 834.469C-725.988 809.686 -717.683 779.711 -717.646 747.857C-717.529 694.693 -720.774 652.805 -723.4 619.316C-730.305 531.033 -733.092 494.495 -665.151 434.044C-623.475 396.987 -559.854 379.435 -470.814 380.28C-389.857 381.08 -297.108 397.111 -222.67 409.966C-151.913 422.222 -94.1194 422.567 -45.9147 411.161C3.76968 399.38 44.1678 374.875 77.3321 336.218C165.332 233.909 221.013 125.96 265.727 39.1567C314.138 -54.6876 349.127 -122.627 398.254 -133.802C422.557 -139.373 449.738 -130.485 481.441 -106.65L481.705 -107.052C449.951 -130.96 422.522 -139.893 398.145 -134.272C348.747 -123.017 313.758 -55.0773 265.252 38.9425C220.486 125.673 164.857 233.695 76.8788 335.879C11.9009 411.382 -80.4452 434.092 -222.705 409.446C-297.194 396.517 -389.944 380.486 -470.901 379.686C-549.647 379.093 -608.538 392.809 -650.036 421.676Z" fill="#DB1220"/>
</g>
<g opacity="0.4065">
<path opacity="0.4065" d="M-657.345 426.654C-663.871 431.193 -669.965 436.195 -675.679 441.587C-736 498.918 -731.769 530.963 -722.455 601.438C-717.51 639.2 -711.259 686.191 -712.445 753.615C-713.582 818.607 -749.986 873.252 -805.038 892.8C-842.939 906.194 -887.386 902.669 -933.637 882.631C-987.269 859.335 -1041.83 814.995 -1095.86 750.775L-1096.25 751.154C-1042.17 815.448 -987.482 859.811 -933.85 883.107C-887.548 903.218 -842.976 906.765 -804.929 893.269C-777.366 883.47 -754.047 865.068 -737.537 839.849C-721.387 815.207 -712.532 785.395 -711.925 753.58C-710.79 686.083 -716.917 639.115 -721.912 601.279C-731.146 531.075 -735.429 498.956 -675.277 441.853C-637.689 406.113 -579.5 388.416 -497.559 387.659C-425.011 387.006 -343.221 399.325 -264.118 411.224C-252.554 412.99 -240.668 414.749 -229.03 416.464C-87.0701 437.394 4.80712 411.195 68.8343 331.667C146.976 234.58 202.53 138.492 247.246 61.3884C305.555 -39.3413 347.685 -112.03 401.38 -122.895C426.956 -128.043 454.809 -118.969 486.564 -95.0607L486.828 -95.4626C454.898 -119.467 426.869 -128.636 401.22 -123.438C390.16 -121.194 379.527 -116.304 369.189 -109.113C329.231 -81.3168 293.111 -18.9126 246.771 61.1741C202.106 138.351 146.501 234.366 68.4321 331.402C4.55163 410.828 -87.179 436.925 -228.964 416.091C-240.601 414.376 -252.487 412.616 -264.051 410.851C-343.155 398.952 -424.945 386.632 -497.566 387.337C-536.801 387.707 -569.638 391.802 -598.032 399.781C-621.004 406.17 -640.629 415.025 -657.345 426.654Z" fill="#DB1220"/>
</g>
<g opacity="0.4323">
<path opacity="0.4323" d="M-665.406 432.258C-672.737 437.359 -679.536 443.069 -685.875 449.44C-740.048 504.347 -734.119 533.359 -722.392 591.037C-714.775 628.575 -704.243 680 -706.844 759.308C-708.976 824.121 -746.427 878.512 -802.276 897.852C-886.48 927.106 -991.948 876.213 -1091.56 758.353L-1091.95 758.733C-1038.51 821.947 -984.407 865.626 -931.031 888.555C-884.933 908.372 -840.339 911.795 -802.139 898.52C-774.152 888.861 -750.385 870.475 -733.378 845.346C-716.73 820.794 -707.378 791.072 -706.295 759.472C-703.745 680.09 -714.204 628.614 -721.821 591.076C-733.519 533.595 -739.47 504.708 -685.466 450.028C-609.488 372.977 -454.116 393.951 -303.837 414.327C-281.265 417.373 -257.946 420.553 -235.38 423.277C-165.618 431.755 -108.785 428.844 -61.8329 414.386C-12.295 399.109 27.7231 370.618 60.3699 327.306C124.291 242.62 173.583 165.057 217.139 96.6084C253.946 38.6317 285.808 -11.4371 315.505 -47.5728C347.498 -86.5055 375.434 -107.029 403.441 -112.124C430.584 -117.053 459.411 -107.676 491.692 -83.4792L492.029 -83.9321C459.697 -108.202 430.695 -117.675 403.355 -112.717C375.223 -107.645 347.141 -87.0198 315.074 -48.036C285.304 -11.8493 253.515 38.1685 216.635 96.1962C173.152 164.594 123.86 242.157 59.939 326.843C-3.04187 410.222 -94.0328 439.728 -235.269 422.654C-257.835 419.931 -281.154 416.75 -303.726 413.704C-441.752 394.834 -584.023 375.646 -665.406 432.258Z" fill="#DB1220"/>
</g>
<g opacity="0.4581">
<path opacity="0.4581" d="M-673.573 437.729C-681.858 443.492 -689.383 450.035 -696.148 457.357C-719.475 482.631 -731.004 502.968 -733.586 523.185C-736.012 542.531 -730.488 561.578 -723.37 585.729C-712.298 623.698 -697.045 675.654 -701.197 765.088C-704.251 829.67 -742.821 883.86 -799.418 903.065C-884.03 931.731 -988.885 881.719 -1087.24 765.82L-1087.7 766.251C-1034.98 828.437 -981.315 871.331 -928.246 893.819C-882.403 913.268 -837.809 916.691 -799.382 903.585C-771.022 893.994 -746.736 875.574 -729.179 850.608C-712.034 826.146 -702.184 796.513 -700.677 765.054C-696.451 675.568 -711.682 623.488 -722.879 585.497C-737.012 537.34 -744.725 510.769 -695.82 457.674C-664.686 423.917 -615.326 406.039 -544.933 403.07C-482.045 400.416 -408.427 409.591 -337.143 418.537C-305.677 422.481 -273.194 426.48 -241.895 429.56C-172.642 436.212 -116.412 431.65 -70.087 415.666C-20.6113 398.58 19.1913 368.058 51.5428 322.445C93.4101 263.455 130.452 208.475 163.19 159.978C264.452 9.63903 331.368 -89.6658 403.53 -101.823C432.928 -106.795 463.298 -97.0745 496.412 -72.1497L496.75 -72.6026C463.511 -97.5498 433.016 -107.293 403.37 -102.365C330.959 -90.2535 264.021 9.17589 162.663 159.69C129.976 208.261 92.9347 263.24 51.0162 322.157C-11.0871 409.612 -101.463 442.506 -241.981 428.966C-273.229 425.96 -305.764 421.887 -337.179 418.017C-408.338 409.093 -482.007 399.845 -544.895 402.499C-578.73 403.908 -606.919 408.584 -631.045 416.756C-647.17 422.196 -661.256 429.161 -673.573 437.729Z" fill="#DB1220"/>
</g>
<g opacity="0.4839">
<path opacity="0.4839" d="M-682.233 443.422C-691.251 449.695 -699.283 456.917 -706.401 465.139C-751.63 517.421 -742.219 540.959 -725.146 583.8C-710.142 621.323 -689.645 672.683 -695.653 770.711C-699.629 835.062 -739.246 888.999 -796.662 908.12C-881.581 936.345 -985.896 887.266 -1082.87 773.351L-1083.34 773.781C-1031.33 834.939 -978.173 877.098 -925.359 899.219C-879.772 918.301 -835.156 921.6 -796.451 908.736C-767.644 899.161 -742.934 880.882 -724.88 856.006C-707.236 831.634 -696.962 802.142 -695.031 770.823C-689.001 672.671 -709.6 621.163 -724.531 583.59C-741.524 541.02 -750.832 517.629 -705.897 465.552C-676.696 431.832 -631.861 414.486 -564.608 410.757C-505.153 407.548 -437.484 415.521 -365.914 423.94C-327.047 428.514 -286.863 433.26 -248.235 435.928C-179.564 440.805 -123.888 434.666 -78.0421 417.054C-28.7018 398.209 10.9586 365.606 43.1391 317.714L51.3641 305.452C210.791 67.7827 306.988 -75.762 401.062 -91.6081C433.844 -97.19 466.702 -87.0206 501.527 -60.8878L501.938 -61.3918C466.96 -87.745 433.881 -97.7612 400.975 -92.2018C381.187 -88.9 361.269 -79.8406 340.74 -65.5599C263.463 -11.8037 176.909 117.294 50.9109 305.114L42.6859 317.375C-18.6644 408.885 -108.374 445.238 -248.124 435.306C-286.73 432.514 -326.863 427.84 -365.73 423.267C-437.3 414.848 -504.968 406.875 -564.497 410.135C-596.465 411.881 -623.015 416.725 -645.603 424.917C-659.458 429.868 -671.602 436.027 -682.233 443.422Z" fill="#DB1220"/>
</g>
<g opacity="0.5097">
<path opacity="0.5097" d="M-691.061 449.349C-700.592 455.979 -709.109 463.756 -716.603 473.002C-758.521 524.725 -746.802 547.202 -727.367 584.368C-708.268 620.895 -682.073 670.906 -690.007 776.488C-694.781 840.631 -735.568 894.292 -793.804 913.329C-879.081 941.041 -982.833 892.769 -1078.43 780.837L-1078.89 781.268C-1027.53 841.346 -974.906 882.895 -922.399 904.575C-877.016 923.364 -832.451 926.589 -793.52 913.895C-735.086 894.828 -694.13 840.941 -689.312 776.549C-681.355 670.843 -707.579 620.633 -726.73 584.033C-746.084 547.139 -757.701 524.809 -716.047 473.488C-656.675 400.249 -528.011 414.733 -391.67 430.088C-346.42 435.235 -299.582 440.476 -254.619 442.553C-186.604 445.706 -131.532 437.916 -86.064 418.822C-36.8371 398.094 2.65907 363.535 34.6396 313.166C118.792 180.616 183.368 90.4592 237.884 29.3194C297.536 -37.5738 347.335 -72.651 394.655 -81.2617C432.344 -88.0776 468.951 -77.6815 506.648 -49.2959L507.06 -49.7999C469.238 -78.2078 432.404 -88.7733 394.568 -81.8554C347.123 -73.2672 297.23 -38.0145 237.504 28.9296C182.988 90.0695 118.339 180.277 34.1863 312.827C-26.5575 408.493 -115.6 448.307 -254.435 441.879C-299.398 439.803 -346.162 434.511 -391.485 429.415C-511.08 415.926 -624.635 403.141 -691.061 449.349Z" fill="#DB1220"/>
</g>
<g opacity="0.5355">
<path opacity="0.5355" d="M-700.066 455.169C-710.403 462.36 -719.324 470.963 -726.804 480.854C-745.194 505.091 -752.795 523.568 -751.278 540.607C-749.934 556.458 -741.081 569.81 -729.826 586.615C-706.441 621.796 -674.334 669.984 -684.339 782.129C-690.035 846.041 -731.818 899.523 -790.851 918.352C-829.863 930.775 -874.252 927.646 -919.204 909.32C-971.331 888.03 -1023.46 847.34 -1073.99 788.312L-1074.53 788.794C-1023.87 847.844 -971.691 888.607 -919.439 909.92C-874.312 928.341 -829.725 931.442 -790.589 919.042C-731.285 900.133 -689.26 846.374 -683.593 782.264C-673.617 669.921 -705.753 621.535 -729.262 586.332C-751.596 552.818 -765.055 532.532 -726.198 481.413C-701.003 448.191 -660.905 430.761 -599.888 426.357C-545.629 422.403 -482.271 429.34 -415.135 436.703C-364.249 442.289 -311.599 448.065 -260.931 449.115C-193.644 450.595 -139.052 441.177 -94.0129 420.529C-44.8992 397.918 -5.61848 361.328 26.191 308.68C100.037 186.024 165.206 95.7823 225.29 32.9494C283.164 -27.5842 335.362 -61.7146 384.844 -71.284C428.819 -79.8561 470.322 -68.8333 511.696 -37.6645L512.108 -38.1686C470.558 -69.4332 428.857 -80.4275 384.758 -71.8778C335.078 -62.2798 282.807 -28.0984 224.836 32.6107C164.731 95.568 99.5837 185.686 25.6645 308.392C-34.5464 408.265 -122.849 451.488 -260.769 448.566C-311.437 447.516 -364.014 441.689 -414.9 436.103C-482.035 428.74 -545.394 421.803 -599.777 425.734C-643.051 428.588 -675.651 438.185 -700.066 455.169Z" fill="#DB1220"/>
</g>
<g opacity="0.5613">
<path opacity="0.5613" d="M-709.382 461.32C-720.233 468.869 -729.44 477.998 -737.076 488.761C-773.862 540.51 -757.489 560.294 -732.651 590.213C-704.811 623.821 -666.675 669.886 -678.741 787.825C-685.286 851.455 -728.188 904.735 -788.042 923.481C-874.078 950.412 -976.802 903.933 -1069.74 795.82L-1070.28 796.302C-1020.42 854.374 -968.619 894.426 -916.674 915.298C-871.751 933.425 -827.215 936.452 -787.831 924.097C-727.706 905.271 -684.584 851.839 -678.046 787.886C-665.912 669.574 -704.225 623.413 -732.115 589.732C-756.676 560.056 -772.947 540.418 -736.499 489.122C-712.937 456.054 -674.801 438.463 -616.243 433.808C-564.07 429.67 -502.329 436.316 -437.06 443.341C-381.108 449.328 -323.217 455.6 -267.444 455.388C-200.886 455.195 -146.847 444.2 -102.236 421.996C-53.236 397.502 -14.0974 358.831 17.49 303.831C143.922 83.0096 262.875 -40.1772 371.048 -62.3432C421.975 -72.8082 470.937 -60.7606 516.514 -26.5209L516.947 -27.1492C471.194 -61.4848 422.057 -73.6283 370.933 -63.1348C340.075 -56.8203 308.396 -42.3039 275.916 -19.71C194.167 37.1574 107.451 145.222 16.8612 303.396C-42.7653 407.549 -130.453 454.16 -267.435 454.619C-323.208 454.831 -381.048 448.632 -436.978 442.521C-502.247 435.496 -563.988 428.85 -616.285 432.965C-656.105 436.249 -686.58 445.459 -709.382 461.32Z" fill="#DB1220"/>
</g>
<g opacity="0.5871">
<path opacity="0.5871" d="M-718.973 467.561C-730.337 475.466 -739.706 485.145 -747.403 496.602C-763.706 521.024 -769.036 539.011 -764.889 554.983C-761.017 569.62 -749.224 581.255 -735.583 594.765C-703.267 626.675 -658.931 670.39 -673.293 793.632C-680.635 857.054 -724.584 910.081 -785.382 928.72C-871.798 955.262 -973.887 909.54 -1065.52 803.461L-1066.06 803.943C-1016.78 861.01 -965.573 900.377 -913.883 920.882C-869.143 938.591 -824.606 941.618 -785.069 929.483C-724.073 910.815 -679.882 857.511 -672.422 793.789C-658.067 670.225 -702.505 626.363 -734.923 594.306C-762.71 566.874 -781.056 548.789 -746.672 497.184C-724.72 464.147 -688.173 446.462 -631.848 441.725C-581.439 437.397 -521.264 443.824 -457.561 450.632C-397.013 457.126 -334.379 463.805 -273.851 462.138C-208.021 460.272 -154.558 447.824 -110.354 423.942C-61.4668 397.564 -22.4704 356.812 8.84382 299.386C69.4436 188.343 131.465 101.708 193.123 41.9212C247.005 -10.276 301.051 -42.5313 353.868 -53.8755C412.633 -66.523 470.524 -53.0567 521.416 -14.7748L521.849 -15.4031C470.781 -53.781 412.642 -67.2922 353.68 -54.6161C300.716 -43.1698 246.545 -10.9371 192.568 41.4356C130.836 101.273 68.7415 187.959 8.11956 299.127C-51.1206 407.589 -138.017 457.682 -273.988 461.471C-334.517 463.138 -397.027 456.482 -457.575 449.987C-521.278 443.18 -581.577 436.73 -631.986 441.058C-668.964 443.891 -697.491 452.617 -718.973 467.561Z" fill="#DB1220"/>
</g>
<g opacity="0.6129">
<path opacity="0.6129" d="M-728.634 473.843C-740.438 482.055 -749.948 492.158 -757.602 504.458C-790.524 557.226 -768.612 575.119 -738.302 599.924C-701.435 630.086 -651.003 671.304 -667.549 799.226C-675.762 862.491 -720.809 915.191 -782.426 933.747C-869.149 959.848 -970.698 915.058 -1061.05 810.816L-1061.66 811.348C-1013.11 867.387 -962.333 905.969 -910.899 926.107C-866.363 943.522 -821.928 946.402 -782.164 934.437C-720.276 915.801 -674.987 862.824 -666.73 799.31C-650.095 670.89 -700.753 629.503 -737.795 599.244C-752.925 586.879 -765.913 576.184 -771.009 562.29C-776.476 547.236 -771.995 528.967 -756.9 504.842C-711.813 432.494 -603.065 444.154 -477.05 457.646C-412.278 464.582 -345.245 471.797 -280.291 468.36C-215.212 464.945 -162.302 450.92 -118.453 425.432C-69.7306 397.098 -30.8764 354.265 0.215691 294.486C104.465 94.3273 216.798 -20.5478 334.227 -47.0814C424.093 -67.4124 493.119 -28.5558 526.357 -3.60842L526.791 -4.23679C500.804 -23.7645 472.55 -37.7917 442.835 -45.7878C407.31 -55.4106 370.705 -56.107 334.038 -47.8221C280.246 -35.6904 226.655 -4.1879 174.608 45.6426C114.103 103.646 55.1189 187.296 -0.559764 294.153C-59.3622 406.998 -145.644 460.478 -280.479 467.619C-345.433 471.057 -412.342 463.864 -477.114 456.928C-539.426 450.243 -598.335 443.916 -647.155 448.338C-681.622 451.495 -708.399 459.767 -728.634 473.843Z" fill="#DB1220"/>
</g>
<g opacity="0.6387">
<path opacity="0.6387" d="M-738.32 480.258C-750.124 488.469 -760.022 498.951 -767.803 512.321C-799.072 565.901 -774.705 582.631 -741.06 605.661C-699.695 634.002 -643.042 672.745 -661.903 805.003C-670.891 867.935 -717.006 920.507 -779.495 938.905C-866.524 964.566 -967.584 920.635 -1056.63 818.427L-1057.24 818.959C-1009.28 873.992 -959.088 911.891 -907.96 931.587C-863.68 948.635 -819.172 951.465 -779.255 939.719C-716.495 921.241 -670.138 868.392 -661.083 805.086C-642.133 672.331 -699.012 633.418 -740.553 604.981C-773.847 582.144 -797.937 565.656 -767.05 512.778C-724.766 440.31 -618.624 451.821 -495.589 465.096C-426.938 472.603 -355.879 480.288 -286.726 474.911C-222.523 469.925 -170.114 454.397 -126.548 427.252C-77.9387 397.034 -39.2776 352.046 -8.3343 289.864C87.2815 97.7825 195.544 -13.7163 313.517 -41.5005C414.395 -65.24 493.278 -20.8146 531.377 7.83615L531.884 7.15675C512.52 -7.38597 480.75 -27.2507 439.826 -39.0039C397.929 -51.0612 355.292 -52.1396 313.328 -42.2411C259.425 -29.4871 206.663 1.32981 156.589 49.461C97.9834 105.816 42.2121 186.577 -8.98521 289.554C-67.4234 406.832 -153.038 463.773 -286.644 474.091C-355.723 479.417 -426.782 471.732 -495.382 464.298C-596.232 453.357 -685.751 443.689 -738.32 480.258Z" fill="#DB1220"/>
</g>
<g opacity="0.6645">
<path opacity="0.6645" d="M-748.348 486.792C-760.445 495.207 -770.483 506.114 -778.126 520.15C-791.862 545.292 -794.33 563.795 -785.846 578.494C-778.106 591.967 -762.201 601.068 -743.81 611.71C-697.996 638.155 -635.174 674.351 -656.43 810.673C-666.216 873.397 -713.451 925.766 -776.81 944.008C-864.146 969.228 -964.593 926.178 -1052.32 825.88L-1053 826.463C-1005.75 880.468 -956.017 917.705 -905.145 937.035C-861.069 953.789 -816.612 956.545 -776.519 944.895C-744.828 935.712 -716.685 917.988 -694.979 893.514C-673.903 869.697 -660.19 841.083 -655.486 810.779C-646.004 750.119 -652.015 703.942 -673.843 669.749C-692.598 640.286 -719.545 624.696 -743.303 611.03C-780.085 589.747 -806.703 574.473 -777.322 520.681C-737.769 448.041 -633.86 459.47 -513.577 472.698C-444.553 480.273 -366.285 488.938 -293.159 481.451C-229.78 474.968 -177.925 457.862 -134.59 429.134C-86.1448 396.959 -47.626 349.891 -16.9048 285.356C71.5082 99.8109 175.642 -8.70733 292.556 -37.3893C407.177 -65.4574 501.223 -7.05477 536.325 19.3208L536.832 18.6415C501.627 -7.881 407.333 -66.3286 292.316 -38.2034C238.742 -25.1332 187.137 5.31449 138.874 52.2951C82.3945 107.171 29.7691 185.417 -17.6801 285.023C-75.703 406.809 -160.703 467.136 -293.201 480.609C-366.254 488.044 -444.471 479.453 -513.422 471.827C-610.897 461.045 -697.539 451.447 -748.348 486.792Z" fill="#DB1220"/>
</g>
<g opacity="0.6903">
<path opacity="0.6903" d="M-758.301 493.297C-771.058 502.172 -780.959 513.745 -788.273 528.098C-798.733 548.564 -801.695 564.794 -797.365 577.587C-791.129 596.249 -770.343 606.423 -746.178 618.171C-695.866 642.795 -626.998 676.42 -650.634 816.359C-661.217 878.876 -709.498 930.992 -773.875 949.178C-861.664 974.059 -961.549 931.817 -1047.99 833.356L-1048.68 833.939C-1002.14 886.915 -952.849 923.367 -902.232 942.329C-858.411 958.716 -813.933 961.348 -773.635 949.992C-741.52 940.95 -712.857 923.191 -690.653 898.807C-669.08 875.08 -654.942 846.607 -649.814 816.443C-639.252 754.051 -645.745 707.338 -669.521 673.628C-690.078 644.546 -719.655 630.023 -745.825 617.271C-769.741 605.568 -790.403 595.416 -796.581 577.151C-800.757 564.578 -797.84 548.597 -787.549 528.358C-750.455 455.466 -648.677 466.961 -530.824 480.136C-458.441 488.317 -376.418 497.531 -299.546 487.766C-236.941 479.858 -185.639 461.175 -142.71 430.767C-94.4804 396.563 -56.1036 347.413 -25.5312 280.475C56.7941 100.254 156.962 -5.83204 272.106 -35.0263C394.845 -66.1257 501.232 0.477942 541.196 30.5571L541.775 29.8267C518.786 12.5742 481.577 -11.3553 434.615 -27.4099C378.99 -46.3767 324.218 -49.2597 271.888 -35.9649C238.127 -27.4124 205.765 -12.3125 174.678 9.31238C99.3808 61.6916 32.0363 152.248 -26.3577 280.069C-84.1119 406.463 -168.372 470.2 -299.691 486.776C-376.489 496.49 -458.512 487.276 -530.771 479.118C-589.686 472.468 -645.271 466.227 -690.094 470.92C-718.661 474.115 -741.071 481.312 -758.301 493.297Z" fill="#DB1220"/>
</g>
<g opacity="0.7161">
<path opacity="0.7161" d="M-768.408 499.883C-781.458 508.961 -791.352 520.858 -798.477 535.951C-808.147 556.303 -810.567 572.374 -805.695 585.008C-798.332 604.194 -775.253 613.754 -748.598 624.859C-720.142 636.675 -687.861 650.08 -665.78 678.538C-640.26 711.47 -633.438 758.5 -645.064 822.177C-656.372 884.434 -705.846 936.399 -771.094 954.429C-859.116 978.818 -958.461 937.509 -1043.58 840.957L-1044.26 841.54C-998.389 893.561 -949.608 929.279 -899.246 947.874C-855.63 963.967 -811.202 966.525 -770.729 955.265C-738.168 946.239 -708.956 928.644 -686.181 904.298C-664.036 880.61 -649.475 852.277 -644.046 822.232C-632.428 758.233 -639.278 711.005 -664.951 677.852C-687.186 649.174 -719.591 635.747 -748.098 623.858C-774.578 612.848 -797.408 603.333 -804.713 584.543C-809.505 572.18 -807.078 556.431 -797.504 536.255C-781.563 502.712 -751.714 484.782 -703.529 479.603C-659.994 474.934 -605.325 481.267 -547.376 487.935C-471.809 496.627 -386.252 506.543 -305.736 494.352C-244.028 484.997 -193.177 464.884 -150.508 432.695C-102.443 396.534 -64.2596 345.23 -33.836 275.888C43.3482 100.007 139.837 -4.17406 252.939 -33.801C377.284 -66.3448 490.181 -0.23645 546.461 42.0368L547.04 41.3064C490.659 -1.11379 377.462 -67.3404 252.721 -34.7395C139.298 -5.10648 42.5151 99.2786 -34.7358 275.533C-91.3903 404.76 -177.521 473.94 -305.881 493.362C-386.271 505.576 -471.829 495.659 -547.323 486.917C-605.272 480.249 -659.941 473.916 -703.673 478.614C-730.783 481.558 -752.058 488.51 -768.408 499.883Z" fill="#DB1220"/>
</g>
<g opacity="0.7419">
<path opacity="0.7419" d="M-778.629 506.448C-791.899 515.679 -801.808 528.023 -808.774 543.659C-817.726 563.947 -819.53 579.808 -814.189 592.334C-805.65 612.118 -780.227 621.138 -750.934 631.499C-720.068 642.4 -685.105 654.812 -661.398 682.792C-633.98 715.168 -626.83 762.514 -639.564 827.725C-651.669 889.774 -702.19 941.486 -768.455 959.46C-856.682 983.556 -955.392 943.003 -1039.25 848.413L-1040.01 849.047C-994.853 900.04 -946.532 935.096 -896.477 953.25C-853.116 968.976 -808.74 971.46 -768.113 960.421C-735.105 951.412 -705.396 933.906 -682.05 909.6C-659.407 886.001 -644.348 857.758 -638.569 827.905C-625.79 762.445 -632.998 714.703 -660.642 682.158C-684.503 653.957 -719.663 641.574 -750.58 630.599C-779.749 620.26 -804.945 611.41 -813.281 591.92C-818.49 579.739 -816.73 564.127 -807.896 544.139C-792.95 510.415 -764.17 492.357 -717.222 487.276C-674.728 482.676 -620.9 489.05 -563.918 495.736C-485.387 505.091 -396.346 515.636 -312.34 500.799C-251.405 490.02 -201.181 468.38 -158.743 434.608C-110.82 396.366 -72.8517 343.032 -42.5769 271.286C30.1638 98.7146 123.363 -3.94059 234.451 -33.8024C301.903 -51.9479 411.56 -51.4929 551.341 53.575L551.92 52.8447C536.811 41.4464 490.729 6.79436 431.506 -17.1898C362.107 -45.3226 295.744 -51.2607 234.16 -34.6899C203.123 -26.2882 173.465 -12.3062 145.237 7.32961C72.2862 58.0768 9.00984 146.348 -43.55 270.982C-99.9868 404.745 -185.4 477.459 -312.507 499.934C-396.315 514.742 -485.283 504.146 -563.813 494.792C-620.847 488.032 -674.725 481.585 -717.367 486.286C-742.843 489.076 -763.085 495.636 -778.629 506.448Z" fill="#DB1220"/>
</g>
<g opacity="0.7677">
<path opacity="0.7677" d="M-788.953 513.193C-802.444 522.577 -812.346 535.243 -819.123 551.62C-827.481 571.822 -828.693 587.598 -822.861 599.891C-813.093 620.346 -785.304 628.701 -753.073 638.436C-686.045 658.626 -602.751 683.742 -633.919 833.498C-646.593 894.417 -699.473 947.116 -765.621 964.79C-817.667 978.65 -921.821 982.978 -1034.96 855.997L-1035.71 856.632C-991.15 906.618 -943.412 940.991 -893.613 958.778C-850.457 974.21 -806.132 976.621 -765.278 965.751C-731.773 956.831 -701.544 939.291 -677.773 915.126C-654.56 891.566 -639.076 863.464 -632.872 833.751C-618.934 766.83 -626.522 718.699 -655.939 686.733C-681.426 659.01 -719.268 647.62 -752.596 637.559C-784.577 627.869 -812.191 619.61 -821.703 599.522C-827.455 587.5 -826.164 571.996 -817.974 552.02C-804.023 518.117 -776.187 499.952 -730.455 494.845C-688.978 490.19 -635.89 496.751 -579.772 503.603C-498.278 513.621 -405.973 524.947 -318.652 507.368C-192.425 481.909 -107.436 405.457 -51.0771 266.734C17.8733 96.69 108.222 -4.74519 217.297 -34.8417C317.597 -62.5396 430.752 -29.5291 553.566 63.0346L556.286 65.0669L556.888 64.2121L554.169 62.1797C532.21 45.627 486.53 11.2404 426.526 -14.4903C351.967 -46.4451 281.463 -53.6445 216.955 -35.8028C187.177 -27.6234 158.823 -14.1126 131.843 4.65624C59.7713 54.7914 -1.90771 142.387 -52.1746 266.408C-108.343 404.779 -193.112 481.078 -318.995 506.407C-406.044 523.907 -498.276 512.529 -579.719 502.585C-635.961 495.711 -689.049 489.149 -730.724 493.833C-754.839 496.547 -774.07 502.84 -788.953 513.193Z" fill="#DB1220"/>
</g>
<g opacity="0.7935">
<path opacity="0.7935" d="M-799.275 519.943C-812.986 529.48 -822.831 542.541 -829.323 559.484C-837.037 579.674 -837.78 595.341 -831.479 607.527C-820.555 628.704 -790.1 636.512 -754.984 645.547C-683.508 663.842 -594.66 686.621 -628.396 839.253C-641.794 899.913 -695.867 952.461 -762.959 970.029C-815.012 983.567 -919.217 987.821 -1030.57 863.411L-1031.34 864.17C-987.495 913.128 -940.218 946.84 -890.674 964.26C-847.773 979.324 -803.448 981.735 -762.492 971.012C-728.613 962.16 -697.762 944.732 -673.347 920.554C-649.637 897.084 -633.655 869.072 -627.151 839.478C-593.238 685.849 -682.708 662.959 -754.558 644.597C-789.498 635.657 -819.653 627.967 -830.395 607.208C-836.564 595.368 -835.793 579.898 -828.196 560.008C-815.116 525.948 -788.224 507.677 -743.583 502.565C-702.948 497.951 -650.703 504.554 -595.324 511.593C-511.064 522.302 -415.568 534.462 -325.013 513.87C-265.72 500.418 -216.499 475.771 -174.604 438.561C-127.06 396.332 -89.5298 338.615 -59.626 262.113C6.25397 93.4421 94.3384 -7.18125 202.177 -37.18C357.366 -80.28 505.636 33.7067 554.377 71.0868C557.148 73.1926 559.465 74.9597 561.38 76.4615L561.982 75.6067C559.994 74.1559 557.626 72.3153 554.98 70.232C531.501 52.1205 482.657 14.5935 419.606 -13.4859C341.443 -48.2749 268.188 -56.613 201.856 -38.2653C172.943 -30.2512 145.425 -17.1035 119.397 1.00226C48.0587 50.6274 -12.265 137.826 -60.628 261.612C-116.476 404.666 -200.652 484.476 -325.26 512.733C-415.668 533.223 -511.04 521.086 -595.175 510.399C-650.678 503.338 -703.048 496.713 -743.683 501.327C-766.707 504.045 -785.052 510.048 -799.275 519.943Z" fill="#DB1220"/>
</g>
<g opacity="0.8194">
<path opacity="0.8194" d="M-809.616 526.802C-823.473 536.441 -833.26 549.899 -839.468 567.406C-846.589 587.511 -846.811 603.144 -840.116 615.272C-827.861 637.267 -794.842 644.382 -756.642 652.689C-710.275 662.727 -657.857 674.113 -631.564 715.664C-612.393 746.038 -609.413 788.327 -622.671 844.965C-636.794 905.365 -692.06 957.762 -760.147 975.151C-812.5 988.57 -916.631 992.774 -1026.19 870.935L-1026.97 871.694C-983.785 919.697 -937.019 952.674 -887.855 969.704C-845.159 984.475 -800.936 986.739 -759.827 976.236C-725.45 967.474 -694.079 950.011 -669.116 925.997C-644.834 902.565 -628.355 874.643 -621.551 845.167C-608.3 788.207 -611.236 745.668 -630.611 715.001C-657.159 673.083 -709.878 661.578 -756.442 651.569C-794.393 643.307 -827.163 636.237 -839.185 614.733C-845.75 602.95 -845.52 587.639 -838.444 567.784C-811.875 493.057 -723.033 504.722 -610.551 519.562C-523.597 531.014 -425.036 543.984 -331.37 520.356C-272.799 505.554 -224.029 479.476 -182.467 440.536C-135.139 396.277 -97.7285 336.354 -68.1712 257.478C-4.51066 89.3696 82.1451 -10.805 189.177 -40.2428C349.083 -84.2259 505.218 39.6589 556.58 80.3384C560.688 83.5848 563.89 86.1538 566.382 88.0168L567.058 87.1109C564.616 85.3214 561.415 82.7524 557.307 79.506C532.558 59.8804 481.093 19.0541 415.206 -11.8492C333.375 -50.1906 257.262 -60.1368 188.981 -41.3058C160.412 -33.4221 133.334 -20.5804 107.746 -2.78064C36.9941 46.4365 -22.2676 133.441 -69.071 257.123C-124.628 404.661 -207.962 488.028 -331.741 519.197C-425.209 542.796 -523.646 529.849 -610.475 518.419C-667.624 510.868 -716.941 504.409 -756.808 509.033C-778.572 511.529 -796.052 517.367 -809.616 526.802Z" fill="#DB1220"/>
</g>
<g opacity="0.8452">
<path opacity="0.8452" d="M-819.989 533.48C-833.406 542.814 -843.516 556.277 -849.792 575.249C-856.394 595.319 -856.17 610.969 -849.005 622.989C-835.471 645.729 -799.712 652.246 -758.304 659.847C-708.736 668.857 -652.522 679.13 -625.125 721.33C-605.639 751.375 -603.054 793.722 -617.075 850.672C-631.944 910.937 -688.381 963.059 -757.559 980.443C-809.918 993.54 -914.05 997.743 -1021.87 878.402L-1022.72 879.212C-980.255 926.187 -933.949 958.503 -885.04 975.165C-842.673 989.62 -798.427 991.76 -757.166 981.477C-722.342 972.731 -690.423 955.432 -664.888 931.456C-640.109 908.115 -623.132 880.282 -615.904 850.947C-601.766 793.697 -604.431 751.079 -624.121 720.74C-651.7 678.122 -708.163 667.804 -757.98 658.75C-799.088 651.267 -834.598 644.794 -847.95 622.473C-854.91 610.746 -855.127 595.42 -848.644 575.649C-823.919 500.462 -736.41 512.4 -625.532 527.592C-536.01 539.766 -434.456 553.596 -337.907 526.763C-280.131 510.661 -231.937 483.131 -190.561 442.359C-143.499 395.996 -106.231 333.992 -76.8225 252.712C-15.3948 84.5223 69.8035 -15.4015 176.373 -44.4087C286.1 -74.1951 415.227 -28.86 560.133 90.3006C565 94.3265 568.808 97.4546 571.301 99.3176L571.976 98.4117C569.484 96.5488 565.676 93.4207 560.859 89.4682C534.986 68.2267 481.295 24.044 412.091 -10.22C326.132 -52.775 246.706 -64.6677 176.104 -45.4208C69.1393 -16.3564 -16.3012 83.8447 -77.7955 252.408C-132.931 404.776 -215.672 491.655 -338.051 525.774C-434.403 552.578 -535.884 538.696 -625.332 526.472C-709.063 514.959 -779.518 505.327 -819.989 533.48Z" fill="#DB1220"/>
</g>
<g opacity="0.871">
<path opacity="0.871" d="M-830.476 540.452C-843.967 549.836 -853.996 563.571 -859.988 583.108C-866.069 603.144 -865.326 618.758 -857.839 630.772C-842.974 654.331 -804.403 660.199 -759.64 666.993C-706.746 674.997 -646.862 684.134 -618.609 726.938C-598.954 756.756 -596.567 799.131 -611.474 856.371C-627.09 916.502 -684.72 968.472 -754.893 985.677C-807.406 998.554 -911.413 1002.78 -1017.5 885.935L-1018.35 886.745C-976.545 932.765 -930.75 964.347 -882.221 980.62C-840.058 994.781 -795.937 996.898 -754.624 986.689C-684.033 969.303 -626.036 917.077 -610.354 856.573C-595.381 798.96 -597.797 756.387 -617.707 726.201C-646.317 682.883 -706.472 673.826 -759.542 665.726C-802.117 659.263 -842.254 653.176 -856.937 630.036C-864.292 618.367 -864.979 603.148 -858.942 583.361C-835.987 507.662 -749.636 519.969 -640.289 535.463C-548.17 548.555 -443.843 563.4 -344.314 533.186C-287.283 515.858 -239.642 486.75 -198.548 444.321C-151.702 395.929 -114.751 331.747 -85.4915 248.064C-26.0323 79.3905 58.024 -20.6108 164.358 -49.0182C278.113 -79.4266 412.8 -28.9127 564.749 101.154C570.099 105.717 573.936 109.043 576.202 110.736L576.877 109.83C574.662 108.21 570.825 104.884 565.476 100.322C540.795 79.2311 483.154 29.8391 410.576 -8.1814C320.08 -55.5376 237.137 -69.6709 164.038 -50.1037C136.056 -42.6281 109.564 -30.1944 84.7089 -12.9047C14.7638 35.7514 -42.6096 122.968 -86.5891 247.738C-140.851 402.769 -225.201 495.78 -344.708 532.152C-443.914 562.359 -548.241 547.514 -640.162 534.394C-721.938 522.72 -790.958 512.962 -830.476 540.452Z" fill="#DB1220"/>
</g>
<g opacity="0.8968">
<path opacity="0.8968" d="M-841.096 547.394C-854.66 556.829 -864.609 570.835 -870.193 590.96C-875.827 611.012 -874.637 626.643 -866.681 638.549C-850.435 662.999 -806.965 668.403 -760.86 674.154C-704.764 681.13 -641.063 689.028 -611.978 732.561C-592.154 762.153 -590.089 804.534 -605.809 862.012C-622.098 921.957 -680.972 973.703 -752.236 990.904C-804.902 1003.56 -908.785 1007.81 -1013.21 893.513L-1014.06 894.323C-972.917 939.388 -927.633 970.235 -879.36 986.14C-837.452 999.934 -793.382 1001.98 -751.989 992.04C-680.33 974.783 -621.14 922.708 -604.711 862.339C-588.925 804.487 -590.997 761.783 -611.025 731.898C-640.49 687.976 -704.366 679.981 -760.835 672.938C-806.567 667.254 -849.839 661.822 -865.853 637.863C-873.604 626.251 -874.663 610.965 -869.22 591.264C-847.912 515.075 -762.696 527.627 -654.726 543.643C-609.494 550.329 -558.195 557.916 -506.451 559.418C-447.24 561.175 -396.256 554.703 -350.68 539.675C-294.443 521.047 -247.254 490.51 -206.42 446.299C-160.494 396.584 -122.685 328.319 -93.9719 243.381C-36.2168 73.8212 46.8954 -26.2864 153.192 -54.1225C234.436 -75.4315 372.835 -63.6873 570.439 112.773C575.868 117.607 579.405 120.815 581.218 122.17L581.967 121.213C580.154 119.858 576.442 116.554 571.238 111.89C545.982 89.3468 486.782 36.4616 410.698 -5.66017C315.455 -58.4338 228.666 -75.1238 152.821 -55.2814C124.934 -47.9813 98.6616 -35.7006 73.9535 -18.5128C4.30167 29.9393 -52.3695 117.54 -95.1426 243.105C-149.158 402.869 -232.886 499.59 -351.073 538.641C-453.033 572.398 -560.059 556.488 -654.526 542.523C-734.72 530.62 -802.531 520.566 -841.096 547.394Z" fill="#DB1220"/>
</g>
<g opacity="0.9226">
<path opacity="0.9226" d="M-851.668 554.418C-865.306 563.904 -875.175 578.181 -880.401 598.821C-885.538 618.962 -884.003 634.463 -875.674 646.436C-857.972 671.727 -811.367 676.476 -761.959 681.346C-702.537 687.316 -635.166 694.079 -605.225 738.215C-585.306 767.631 -583.614 809.945 -600.096 867.736C-617.182 927.473 -677.25 979.068 -749.582 996.14C-802.402 1008.58 -906.189 1012.65 -1008.82 900.924L-1009.75 901.784C-969.322 945.821 -924.446 976.081 -876.553 991.597C-834.923 1005.15 -790.955 1007.04 -749.409 997.327C-676.681 980.198 -616.225 928.224 -598.998 868.062C-582.399 809.972 -584.148 767.262 -604.272 737.552C-634.519 692.975 -702.139 686.168 -761.883 680.203C-810.97 675.327 -857.325 670.623 -874.721 645.773C-882.794 634.167 -884.322 618.989 -879.252 599.221C-870.262 563.973 -847.345 545.306 -807.207 540.602C-770.409 536.259 -723.355 543.53 -668.793 551.899C-622.486 559.036 -569.987 567.097 -516.955 568.574C-456.06 570.25 -403.778 562.984 -357.071 546.298C-239.859 504.437 -156.534 403.854 -102.551 238.881C-46.3087 68.0852 36.0791 -32.2814 142.462 -59.5238C220.98 -79.5905 311.548 -59.9703 411.648 -1.31007C491.273 45.4332 553.479 103.421 576.936 125.254C581.788 129.727 584.922 132.67 586.282 133.686L587.031 132.729C585.722 131.786 582.588 128.844 577.809 124.32C554.352 102.487 492.044 44.3519 412.345 -2.34034C311.843 -61.2658 220.902 -80.9534 142.113 -60.8072C114.197 -53.705 87.9474 -41.5487 63.3861 -24.463C-6.11911 23.887 -62.0883 111.871 -103.751 238.408C-157.667 403.008 -240.677 503.262 -357.493 545.065C-462.081 582.395 -576.63 564.742 -668.695 550.632C-747.359 538.427 -813.983 528.203 -851.668 554.418Z" fill="#DB1220"/>
</g>
<g opacity="0.9484">
<path opacity="0.9484" d="M-862.28 561.363C-876.65 571.359 -885.935 586.32 -890.67 606.727C-895.36 626.885 -893.452 642.452 -884.728 654.369C-865.519 680.574 -815.684 684.493 -762.943 688.679C-700.32 693.622 -629.205 699.197 -598.607 743.966C-578.592 773.207 -577.296 815.578 -594.568 873.483C-612.401 933.085 -673.662 984.529 -747.063 1001.47C-799.889 1013.59 -903.552 1017.68 -1004.45 908.453L-1005.37 909.314C-965.612 952.396 -921.247 981.921 -873.683 997.121C-832.308 1010.3 -788.414 1012.25 -746.817 1002.61C-672.946 985.557 -611.297 933.734 -593.324 873.707C-575.911 815.378 -577.266 772.611 -597.485 743.076C-628.514 697.844 -699.878 692.224 -762.823 687.288C-815.315 683.146 -864.902 679.272 -883.679 653.53C-892.199 641.908 -894.049 626.736 -889.425 606.951C-881.16 571.445 -858.938 552.716 -819.518 548.075C-783.437 543.796 -736.677 551.271 -682.679 559.924C-588.236 575.104 -470.688 593.941 -363.332 552.615C-247.44 508.075 -164.883 403.885 -111 234.076C-56.2263 61.7949 25.6572 -38.984 132.302 -65.5367C300.953 -107.428 487.707 44.2075 584.102 138.363C587.975 142.209 590.328 144.496 591.183 145.1L591.932 144.143C591.201 143.562 588.672 141.179 584.953 137.553C563.801 116.842 499.335 53.8855 415.687 1.98403C368.349 -27.4346 322.298 -48.592 278.959 -60.8452C226.145 -75.772 176.723 -77.6895 131.982 -66.6222C24.8685 -39.9613 -57.3816 61.0726 -112.318 233.903C-166.06 403.287 -248.375 507.2 -363.923 551.609C-470.986 592.731 -588.285 573.939 -682.603 558.781C-736.726 550.106 -783.486 542.631 -819.765 546.939C-837.127 548.88 -851.209 553.661 -862.28 561.363Z" fill="#DB1220"/>
</g>
<g opacity="0.9742">
<path opacity="0.9742" d="M-872.925 568.433C-887.368 578.481 -896.5 593.662 -901.002 614.56C-905.246 634.735 -902.891 650.319 -893.793 662.302C-873.079 689.421 -819.962 692.584 -763.668 695.934C-729.739 697.946 -694.791 700.014 -664.049 707.296C-629.422 715.472 -605.759 729.313 -591.78 749.564C-571.721 778.556 -570.82 820.985 -588.98 879.179C-607.559 938.646 -670.064 989.866 -744.607 1006.73C-797.462 1018.65 -900.927 1022.71 -1000.09 915.984L-1001.01 916.845C-961.914 958.972 -918.133 987.813 -870.876 1002.57C-829.779 1015.51 -785.987 1017.31 -744.309 1007.94C-706.975 999.52 -672.15 982.488 -643.76 958.706C-616.441 935.887 -596.594 907.802 -587.684 879.477C-569.385 820.858 -570.366 778.159 -590.681 748.799C-604.864 728.254 -628.753 714.244 -663.754 706C-694.496 698.718 -729.567 696.628 -763.571 694.667C-819.491 691.384 -872.359 688.267 -892.694 661.537C-901.536 649.921 -903.884 634.659 -899.655 614.932C-891.99 579.188 -870.463 560.399 -831.761 555.821C-796.2 551.576 -750.004 559.334 -696.372 568.242C-599.779 584.325 -479.503 604.425 -369.722 559.232C-315.668 536.999 -269.933 502.024 -229.93 452.396C-185.046 396.648 -147.846 321.721 -119.579 229.572C-65.987 55.2789 15.6122 -46.0652 122.944 -71.7875C208.616 -92.3617 309.059 -65.114 421.529 9.13916C461.566 35.5702 523.679 81.8512 592.244 152.42C594.903 155.148 595.992 156.244 596.27 156.487L597.04 155.406C596.763 155.163 595.243 153.604 593.117 151.486C524.501 80.8433 462.285 34.4156 422.249 7.98448C372.159 -25.0784 323.668 -49.1169 277.955 -63.533C221.961 -81.1533 169.635 -84.4298 122.668 -73.1218C94.4234 -66.3359 67.947 -54.349 43.239 -37.1613C-26.1195 11.0868 -81.0735 100.218 -120.83 229.025C-174.421 403.319 -255.967 510.839 -370.247 557.853C-479.609 602.864 -599.71 582.86 -696.105 566.749C-749.737 557.841 -796.058 550.06 -831.816 554.334C-848.681 556.364 -862.22 560.987 -872.925 568.433Z" fill="#DB1220"/>
</g>
<path d="M-883.606 575.439C-898.049 585.487 -907.05 601.013 -911.194 622.425C-915.064 642.667 -912.336 658.318 -902.843 670.245C-880.622 698.278 -824.151 700.633 -764.305 703.147C-728.675 704.631 -691.831 706.141 -659.807 713.077C-623.649 720.951 -599.195 734.678 -584.938 755.172C-564.857 784.04 -564.329 826.401 -583.353 884.76C-602.679 944.093 -666.45 995.212 -742.186 1011.93C-795.07 1023.64 -898.337 1027.68 -995.759 923.45L-996.706 924.436C-958.273 965.608 -915.004 993.714 -868.148 1008.21C-827.307 1020.78 -783.639 1022.56 -741.86 1013.33C-704.006 1004.88 -668.683 987.936 -639.598 964.216C-611.657 941.509 -591.29 913.389 -582.08 885.183C-562.916 826.399 -563.553 783.569 -583.839 754.407C-598.299 733.619 -623.031 719.649 -659.563 711.708C-691.711 704.75 -728.555 703.239 -764.309 701.733C-823.782 699.286 -880.056 696.903 -901.846 669.333C-911.01 657.723 -913.68 642.467 -909.876 622.599C-902.986 586.523 -882.03 567.694 -844.045 563.18C-809.027 559.094 -763.175 566.983 -710.057 576.248C-618.003 592.218 -503.407 612.128 -397.324 573.976C-339.128 553.004 -289.981 517.617 -247.051 465.627C-198.317 406.655 -158.417 325.599 -128.346 224.783C-75.3189 47.1766 6.8824 -55.0224 116.136 -78.9204C231.805 -104.23 357.393 -35.8314 442.536 26.0391C534.778 93.1089 600.363 167.059 600.998 167.816L601.996 166.904C601.361 166.147 535.6 92.1011 443.307 24.9579C389.094 -14.5017 336.404 -43.7943 286.738 -62.328C224.658 -85.4147 167.169 -91.4216 115.86 -80.2548C86.3201 -73.7668 58.7306 -61.6597 33.1428 -43.8599C-36.2891 4.43916 -90.8342 94.1576 -129.693 224.412C-186.311 414.218 -274.071 528.132 -397.87 572.721C-503.609 610.743 -618.029 590.929 -709.959 574.981C-763.151 565.767 -809.178 557.782 -844.394 561.897C-860.22 563.858 -873.341 568.299 -883.606 575.439Z" fill="#DB1220"/>
</svg>
