<svg width="47" height="8" viewBox="0 0 47 8" fill="none" xmlns="http://www.w3.org/2000/svg">
<path d="M24.529 7.92522C26.6701 7.92522 28.4057 6.16815 28.4057 4.0007C28.4057 1.83324 26.6701 0.0761719 24.529 0.0761719C22.388 0.0761719 20.6523 1.83324 20.6523 4.0007C20.6523 6.16815 22.388 7.92522 24.529 7.92522Z" fill="#EF9122"/>
<path d="M20.6523 4.0007C20.6523 1.81202 22.367 0.0761719 24.529 0.0761719C26.691 0.0761719 28.4057 1.81202 28.4057 4.0007C28.4057 6.18937 26.691 7.92522 24.529 7.92522" fill="#F26E21"/>
<path d="M21.8438 1.20825C23.3348 -0.301186 25.795 -0.301186 27.286 1.20825C28.7771 2.71768 28.7771 5.20824 27.286 6.71767" fill="#F44500"/>
<path d="M2.08745 0.302734H0V7.69895H2.08745C3.20573 7.69895 4.0258 7.39707 4.69677 6.86877C5.51684 6.18952 6.0387 5.13292 6.0387 4.00084C6.0387 1.81217 4.47311 0.302734 2.08745 0.302734ZM3.80215 5.88763C3.35484 6.26499 2.75842 6.49141 1.8638 6.49141H1.41649V1.58575H1.78925C2.68387 1.58575 3.28028 1.7367 3.72759 2.18952C4.24946 2.64235 4.54767 3.3216 4.54767 4.00084C4.62222 4.68009 4.32401 5.4348 3.80215 5.88763Z" fill="#595A5B"/>
<path d="M8.12742 0.302734H6.71094V7.69895H8.12742V0.302734Z" fill="#595A5B"/>
<path d="M11.7047 3.16995C10.8101 2.86807 10.5865 2.64165 10.5865 2.2643C10.5865 1.81147 11.0338 1.43411 11.6302 1.43411C12.0775 1.43411 12.4503 1.58505 12.823 2.03788L13.5685 1.05675C12.9721 0.528449 12.2266 0.226562 11.4065 0.226562C10.1391 0.226562 9.09542 1.13222 9.09542 2.33977C9.09542 3.39637 9.54273 3.8492 10.8847 4.3775C11.4811 4.60392 11.7047 4.67939 11.8538 4.83033C12.152 4.98127 12.3011 5.28316 12.3011 5.58505C12.3011 6.18882 11.8538 6.64165 11.1829 6.64165C10.5119 6.64165 9.91549 6.26429 9.61728 5.66052L8.72266 6.56618C9.39362 7.54731 10.2137 8.00014 11.2574 8.00014C12.7485 8.00014 13.7922 7.01901 13.7922 5.58505C13.7922 4.30203 13.3449 3.77373 11.7047 3.16995Z" fill="#595A5B"/>
<path d="M14.2383 4C14.2383 6.18867 15.953 7.84905 18.115 7.84905C18.7114 7.84905 19.2333 7.69811 19.9042 7.39622V5.66037C19.3078 6.26414 18.7859 6.49056 18.1895 6.49056C16.773 6.49056 15.7293 5.43396 15.7293 3.92452C15.7293 2.49056 16.773 1.35849 18.115 1.35849C18.7859 1.35849 19.3078 1.5849 19.9042 2.18868V0.45283C19.3078 0.150943 18.7859 0 18.115 0C16.0275 0.150943 14.2383 1.88679 14.2383 4Z" fill="#3B3D3F"/>
<path d="M31.6094 5.28386L29.6711 0.302734H28.1055L31.1621 7.92537H31.9822L35.1879 0.302734H33.6223L31.6094 5.28386Z" fill="black"/>
<path d="M35.7852 7.69895H39.8855V6.49141H37.2762V4.45367H39.811V3.17066H37.2762V1.58575H39.8855V0.302734H35.7852V7.69895Z" fill="black"/>
<path d="M43.9121 4.60462C45.0304 4.3782 45.6268 3.62349 45.6268 2.49141C45.6268 1.13292 44.6576 0.302734 43.0175 0.302734H40.8555V7.69895H42.272V4.75556H42.4956L44.5085 7.69895H46.2232L43.9121 4.60462ZM42.7193 3.69896H42.272V1.43481H42.7193C43.6139 1.43481 44.1357 1.81217 44.1357 2.56688C44.1357 3.3216 43.6139 3.69896 42.7193 3.69896Z" fill="#595A5B"/>
<path d="M2.08745 0.302734H0V7.69895H2.08745C3.20573 7.69895 4.0258 7.39707 4.69677 6.86877C5.51684 6.18952 6.0387 5.13292 6.0387 4.00084C6.0387 1.81217 4.47311 0.302734 2.08745 0.302734ZM3.80215 5.88763C3.35484 6.26499 2.75842 6.49141 1.8638 6.49141H1.41649V1.58575H1.78925C2.68387 1.58575 3.28028 1.7367 3.72759 2.18952C4.24946 2.64235 4.54767 3.3216 4.54767 4.00084C4.62222 4.68009 4.32401 5.4348 3.80215 5.88763Z" fill="#595A5B"/>
<path d="M8.12742 0.302734H6.71094V7.69895H8.12742V0.302734Z" fill="#595A5B"/>
<path d="M11.7047 3.16995C10.8101 2.86807 10.5865 2.64165 10.5865 2.2643C10.5865 1.81147 11.0338 1.43411 11.6302 1.43411C12.0775 1.43411 12.4503 1.58505 12.823 2.03788L13.5685 1.05675C12.9721 0.528449 12.2266 0.226562 11.4065 0.226562C10.1391 0.226562 9.09542 1.13222 9.09542 2.33977C9.09542 3.39637 9.54273 3.8492 10.8847 4.3775C11.4811 4.60392 11.7047 4.67939 11.8538 4.83033C12.152 4.98127 12.3011 5.28316 12.3011 5.58505C12.3011 6.18882 11.8538 6.64165 11.1829 6.64165C10.5119 6.64165 9.91549 6.26429 9.61728 5.66052L8.72266 6.56618C9.39362 7.54731 10.2137 8.00014 11.2574 8.00014C12.7485 8.00014 13.7922 7.01901 13.7922 5.58505C13.7922 4.30203 13.3449 3.77373 11.7047 3.16995Z" fill="#595A5B"/>
<path d="M18.1915 7.84909C18.788 7.84909 19.3098 7.69814 19.9808 7.39626V5.66041C19.3844 6.26418 18.8625 6.4906 18.2661 6.4906C16.8496 6.4906 15.8059 5.43399 15.8059 3.92456C15.8059 3.16985 16.1041 2.56607 16.5514 2.03777L15.5822 1.05664C14.8367 1.73589 14.3148 2.79249 14.3148 3.92456C14.2403 6.18871 15.955 7.84909 18.1915 7.84909Z" fill="#595A5B"/>
<path d="M43.9121 4.60462C45.0304 4.3782 45.6268 3.62349 45.6268 2.49141C45.6268 1.13292 44.6576 0.302734 43.0175 0.302734H40.8555V7.69895H42.272V4.75556H42.4956L44.5085 7.69895H46.2232L43.9121 4.60462ZM42.7193 3.69896H42.272V1.43481H42.7193C43.6139 1.43481 44.1357 1.81217 44.1357 2.56688C44.1357 3.3216 43.6139 3.69896 42.7193 3.69896Z" fill="black"/>
<path d="M38.6181 6.49097H37.2762V5.13248L35.7852 3.62305V7.69851H39.811L38.6181 6.49097Z" fill="#3B3D3F"/>
<path d="M33.2495 1.05745L31.6094 5.28386L29.6711 0.302734H28.1055L31.1621 7.92537H31.9822L34.3678 2.18952L33.2495 1.05745Z" fill="#3B3D3F"/>
</svg>
