<svg width="14" height="19" viewBox="0 0 14 19" fill="none" xmlns="http://www.w3.org/2000/svg">
<path d="M7.84375 8.58203C7.84375 8.33594 7.63281 8.16016 7.42188 8.16016H6.57812C6.33203 8.16016 6.15625 8.33594 6.15625 8.58203V11.5352H4.43359C4.04688 11.5352 3.87109 11.9922 4.11719 12.2383L6.64844 14.7695C6.82422 14.9453 7.14062 14.9453 7.31641 14.7695L9.84766 12.2383C10.0938 11.9922 9.91797 11.5352 9.53125 11.5352H7.84375V8.58203ZM13.2227 3.69531L10.2695 0.777344C9.95312 0.460938 9.53125 0.25 9.10938 0.25H1.90234C0.988281 0.285156 0.25 1.02344 0.25 1.97266V16.5977C0.25 17.5117 0.988281 18.25 1.90234 18.25H12.0273C12.9766 18.25 13.75 17.5117 13.75 16.5977V4.89062C13.75 4.46875 13.5391 4.01172 13.2227 3.69531ZM9.21484 2.07812L11.9219 4.78516H9.21484V2.07812ZM12.0625 16.5977H1.90234V1.97266H7.52734V5.62891C7.52734 6.08594 7.91406 6.47266 8.37109 6.47266H12.0625V16.5977Z" fill="#2D4193"/>
</svg>
