<svg width="46" height="52" viewBox="0 0 46 52" fill="none" xmlns="http://www.w3.org/2000/svg">
<path d="M39.4488 32.5258C37.8984 32.0008 36.2578 32.5012 35.257 33.8055L30.6797 39.7938C30.6797 39.7609 30.6797 39.7281 30.6797 39.6953C30.6797 37.4313 28.8422 35.5938 26.5781 35.5938H18.4406C15.8484 33.3871 12.1816 32.9934 9.1875 34.5356V34.3633C9.1875 33.6824 8.63789 33.1328 7.95703 33.1328H1.23047C0.549609 33.1328 0 33.6824 0 34.3633V50.7695C0 51.4504 0.549609 52 1.23047 52H7.95703C8.63789 52 9.1875 51.4504 9.1875 50.7695V49.5391H29.359C32.3039 49.5391 35.0109 48.0625 36.6023 45.5852L41.4012 38.1121C41.7949 37.5051 42 36.7996 42 36.0777C42 34.4453 40.9992 33.0508 39.4488 32.5258ZM6.72656 49.5391H2.46094V35.5938H6.72656V49.5391ZM39.334 36.7832L34.5352 44.2563C33.3949 46.0281 31.4672 47.0781 29.359 47.0781H9.1875V37.4559L9.59766 37.1606C11.9027 35.5117 15.0691 35.7414 17.1117 37.7102C17.3414 37.9316 17.6449 38.0547 17.9648 38.0547H26.5781C27.4805 38.0547 28.2188 38.793 28.2188 39.6953C28.2188 40.5977 27.4805 41.3359 26.5781 41.3359H17.9648H17.8008C17.1199 41.3359 16.5703 41.8856 16.5703 42.5664C16.5703 43.2473 17.1199 43.7969 17.8008 43.7969H17.9648H26.5781H27.6773C29.5805 43.7969 31.4098 42.8945 32.5664 41.3852L37.2176 35.2984C37.7426 34.6176 38.4562 34.7899 38.6613 34.8555C38.8664 34.9293 39.5391 35.2164 39.5391 36.0859C39.5391 36.332 39.4652 36.5699 39.334 36.7832Z" fill="white"/>
<path d="M23 32.15C27.4924 32.15 31.15 28.4924 31.15 24C31.15 19.5076 27.4924 15.85 23 15.85C18.5076 15.85 14.85 19.5076 14.85 24C14.85 28.4924 18.5076 32.15 23 32.15ZM23 18.07C26.2708 18.07 28.93 20.7292 28.93 24C28.93 27.2708 26.2708 29.93 23 29.93C19.7292 29.93 17.07 27.2708 17.07 24C17.07 20.7292 19.7292 18.07 23 18.07Z" fill="white" stroke="white" stroke-width="0.3"/>
<path d="M36.5 18.15C41.268 18.15 45.15 14.268 45.15 9.5C45.15 4.73196 41.268 0.85 36.5 0.85C31.732 0.85 27.85 4.73196 27.85 9.5C27.85 14.268 31.732 18.15 36.5 18.15ZM36.5 3.19C39.9804 3.19 42.81 6.01964 42.81 9.5C42.81 12.9804 39.9804 15.81 36.5 15.81C33.0196 15.81 30.19 12.9804 30.19 9.5C30.19 6.01964 33.0196 3.19 36.5 3.19Z" fill="white" stroke="white" stroke-width="0.3"/>
</svg>
