<svg width="91" height="21" viewBox="0 0 91 21" fill="none" xmlns="http://www.w3.org/2000/svg">
<path d="M18.7252 0.941386L18.6201 0.834427L18.5149 0.941356L0.894836 18.852L0.789642 18.959L0.894806 19.0659L1.99575 20.1856L2.10091 20.2926L2.2061 20.1857L19.8261 2.27501L19.9313 2.16808L19.8262 2.06112L18.7252 0.941386Z" fill="#E83136" stroke="#E83136" stroke-width="0.3"/>
<path d="M36.3223 0.917358L36.2172 0.810414L36.112 0.917358L18.4944 18.8306L18.3893 18.9375L18.4944 19.0444L19.5955 20.164L19.7007 20.271L19.8059 20.164L37.4234 2.25082L37.5286 2.14388L37.4234 2.03693L36.3223 0.917358Z" fill="#E83136" stroke="#E83136" stroke-width="0.3"/>
<path d="M53.9219 0.893919L53.8168 0.786975L53.7116 0.893919L36.094 18.8071L35.9889 18.9141L36.094 19.021L37.1951 20.1406L37.3003 20.2475L37.4055 20.1406L55.023 2.22738L55.1282 2.12044L55.023 2.01349L53.9219 0.893919Z" fill="#E83136" stroke="#E83136" stroke-width="0.3"/>
<path d="M71.4356 0.956419L71.3304 0.849475L71.2253 0.956419L53.6077 18.8696L53.5025 18.9766L53.6077 19.0835L54.7088 20.2031L54.814 20.31L54.9192 20.2031L72.5367 2.28988L72.6419 2.18294L72.5367 2.07599L71.4356 0.956419Z" fill="#E83136" stroke="#E83136" stroke-width="0.3"/>
<path d="M89.0358 0.935526L88.9306 0.828568L88.8254 0.935496L71.2054 18.8462L71.1002 18.9531L71.2054 19.0601L72.3063 20.1798L72.4115 20.2867L72.5167 20.1798L90.1367 2.26915L90.2419 2.16222L90.1367 2.05526L89.0358 0.935526Z" fill="#E83136" stroke="#E83136" stroke-width="0.3"/>
</svg>
