<svg width="72" height="88" viewBox="0 0 72 88" fill="none" xmlns="http://www.w3.org/2000/svg">
<path d="M68.7 44C68.7 43.1 69.4 42.4 70.3 42.4C71.2 42.4 71.9 43.1 71.9 44C71.9 44.9 71.2 45.6 70.3 45.6C69.4 45.6 68.7 44.9 68.7 44ZM52.4 44C52.4 43.1 53.1 42.4 54 42.4C54.9 42.4 55.6 43.1 55.6 44C55.6 44.9 54.9 45.6 54 45.6C53.1 45.6 52.4 44.9 52.4 44ZM36 44C36 43.1 36.7 42.4 37.6 42.4C38.5 42.4 39.2 43.1 39.2 44C39.2 44.9 38.5 45.6 37.6 45.6C36.7 45.6 36 44.9 36 44ZM19.7 44C19.7 43.1 20.4 42.4 21.3 42.4C22.2 42.4 22.9 43.1 22.9 44C22.9 44.9 22.2 45.6 21.3 45.6C20.4 45.6 19.7 44.9 19.7 44ZM3.3 44C3.3 43.1 4 42.4 4.9 42.4C5.8 42.4 6.5 43.1 6.5 44C6.5 44.9 5.8 45.6 4.9 45.6C4 45.6 3.3 44.9 3.3 44ZM-13 44C-13 43.1 -12.3 42.4 -11.4 42.4C-10.5 42.4 -9.8 43.1 -9.8 44C-9.8 44.9 -10.5 45.6 -11.4 45.6C-12.3 45.6 -13 44.9 -13 44Z" fill="#CACFDD"/>
<path d="M68.7 1.6C68.7 0.7 69.4 0 70.3 0C71.2 0 71.9 0.7 71.9 1.6C71.9 2.5 71.2 3.2 70.3 3.2C69.4 3.2 68.7 2.4 68.7 1.6ZM52.4 1.6C52.4 0.7 53.1 0 54 0C54.9 0 55.6 0.7 55.6 1.6C55.6 2.5 54.9 3.2 54 3.2C53.1 3.2 52.4 2.4 52.4 1.6ZM36 1.6C36 0.7 36.7 0 37.6 0C38.5 0 39.2 0.7 39.2 1.6C39.2 2.5 38.5 3.2 37.6 3.2C36.7 3.2 36 2.4 36 1.6ZM19.7 1.6C19.7 0.7 20.4 0 21.3 0C22.2 0 22.9 0.7 22.9 1.6C22.9 2.5 22.2 3.2 21.3 3.2C20.4 3.2 19.7 2.4 19.7 1.6ZM3.3 1.6C3.3 0.7 4 0 4.9 0C5.8 0 6.5 0.7 6.5 1.6C6.5 2.5 5.8 3.2 4.9 3.2C4 3.2 3.3 2.4 3.3 1.6ZM-13 1.6C-13 0.7 -12.3 0 -11.4 0C-10.5 0 -9.8 0.7 -9.8 1.6C-9.8 2.5 -10.5 3.2 -11.4 3.2C-12.3 3.2 -13 2.4 -13 1.6Z" fill="#CACFDD"/>
<path d="M68.7 65.2C68.7 64.3 69.4 63.6 70.3 63.6C71.2 63.6 71.9 64.3 71.9 65.2C71.9 66.1 71.2 66.8 70.3 66.8C69.4 66.8 68.7 66 68.7 65.2ZM52.4 65.2C52.4 64.3 53.1 63.6 54 63.6C54.9 63.6 55.6 64.3 55.6 65.2C55.6 66.1 54.9 66.8 54 66.8C53.1 66.8 52.4 66 52.4 65.2ZM36 65.2C36 64.3 36.7 63.6 37.6 63.6C38.5 63.6 39.2 64.3 39.2 65.2C39.2 66.1 38.5 66.8 37.6 66.8C36.7 66.8 36 66 36 65.2ZM19.7 65.2C19.7 64.3 20.4 63.6 21.3 63.6C22.2 63.6 22.9 64.3 22.9 65.2C22.9 66.1 22.2 66.8 21.3 66.8C20.4 66.8 19.7 66 19.7 65.2ZM3.3 65.2C3.3 64.3 4 63.6 4.9 63.6C5.8 63.6 6.5 64.3 6.5 65.2C6.5 66.1 5.8 66.8 4.9 66.8C4 66.8 3.3 66 3.3 65.2ZM-13 65.2C-13 64.3 -12.3 63.6 -11.4 63.6C-10.5 63.6 -9.8 64.3 -9.8 65.2C-9.8 66.1 -10.5 66.8 -11.4 66.8C-12.3 66.8 -13 66 -13 65.2Z" fill="#CACFDD"/>
<path d="M68.7 22.8C68.7 21.9 69.4 21.2 70.3 21.2C71.2 21.2 71.9 21.9 71.9 22.8C71.9 23.7 71.2 24.4 70.3 24.4C69.4 24.3 68.7 23.6 68.7 22.8ZM52.4 22.8C52.4 21.9 53.1 21.2 54 21.2C54.9 21.2 55.6 21.9 55.6 22.8C55.6 23.7 54.9 24.4 54 24.4C53.1 24.3 52.4 23.6 52.4 22.8ZM36 22.8C36 21.9 36.7 21.2 37.6 21.2C38.5 21.2 39.2 21.9 39.2 22.8C39.2 23.7 38.5 24.4 37.6 24.4C36.7 24.3 36 23.6 36 22.8ZM19.7 22.8C19.7 21.9 20.4 21.2 21.3 21.2C22.2 21.2 22.9 21.9 22.9 22.8C22.9 23.7 22.2 24.4 21.3 24.4C20.4 24.3 19.7 23.6 19.7 22.8ZM3.3 22.8C3.3 21.9 4 21.2 4.9 21.2C5.8 21.2 6.5 21.9 6.5 22.8C6.5 23.7 5.8 24.4 4.9 24.4C4 24.3 3.3 23.6 3.3 22.8ZM-13 22.8C-13 21.9 -12.3 21.2 -11.4 21.2C-10.5 21.2 -9.8 21.9 -9.8 22.8C-9.8 23.7 -10.5 24.4 -11.4 24.4C-12.3 24.3 -13 23.6 -13 22.8Z" fill="#CACFDD"/>
<path d="M68.7 86.4001C68.7 85.5001 69.4 84.8 70.3 84.8C71.2 84.8 71.9 85.5001 71.9 86.4001C71.9 87.3001 71.2 88 70.3 88C69.4 87.9 68.7 87.2001 68.7 86.4001ZM52.4 86.4001C52.4 85.5001 53.1 84.8 54 84.8C54.9 84.8 55.6 85.5001 55.6 86.4001C55.6 87.3001 54.9 88 54 88C53.1 87.9 52.4 87.2001 52.4 86.4001ZM36 86.4001C36 85.5001 36.7 84.8 37.6 84.8C38.5 84.8 39.2 85.5001 39.2 86.4001C39.2 87.3001 38.5 88 37.6 88C36.7 87.9 36 87.2001 36 86.4001ZM19.7 86.4001C19.7 85.5001 20.4 84.8 21.3 84.8C22.2 84.8 22.9 85.5001 22.9 86.4001C22.9 87.3001 22.2 88 21.3 88C20.4 87.9 19.7 87.2001 19.7 86.4001ZM3.3 86.4001C3.3 85.5001 4 84.8 4.9 84.8C5.8 84.8 6.5 85.5001 6.5 86.4001C6.5 87.3001 5.8 88 4.9 88C4 87.9 3.3 87.2001 3.3 86.4001ZM-13 86.4001C-13 85.5001 -12.3 84.8 -11.4 84.8C-10.5 84.8 -9.8 85.5001 -9.8 86.4001C-9.8 87.3001 -10.5 88 -11.4 88C-12.3 87.9 -13 87.2001 -13 86.4001Z" fill="#CACFDD"/>
</svg>
