<svg width="229" height="64" viewBox="0 0 229 64" fill="none" xmlns="http://www.w3.org/2000/svg">
<path d="M50.3268 53.2246C49.3935 54.5686 48.2175 55.9499 46.7988 57.3686C45.4175 58.7873 44.5028 59.4966 44.0548 59.4966C42.9721 59.4966 43.2708 58.6753 44.9508 57.0326C46.7055 55.6513 48.2548 53.7286 49.5988 51.2646C50.9801 48.8006 51.9135 46.3553 52.3988 43.9286C52.9215 41.0166 52.7535 38.9633 51.8948 37.7686C51.6335 37.3953 51.2601 37.3579 50.7748 37.6566C50.3268 37.9179 48.9081 39.0006 46.5188 40.9046C45.3615 41.8006 44.2788 42.6219 43.2708 43.3686C42.2628 44.1526 40.9375 45.1419 39.2948 46.3366C37.6521 47.5686 36.0841 48.6886 34.5908 49.6966C33.1348 50.7046 31.4735 51.8246 29.6068 53.0566C27.7401 54.2886 25.9668 55.3899 24.2868 56.3606C22.6441 57.3313 20.9455 58.3019 19.1908 59.2726C17.3988 60.2433 15.7188 61.0273 14.1508 61.6246C12.5828 62.2593 11.0895 62.7819 9.67079 63.1926C8.21479 63.6033 6.88946 63.7899 5.69479 63.7526C4.50012 63.7526 3.47346 63.5286 2.61479 63.0806C1.42013 62.4086 0.785458 61.3073 0.710791 59.7766C0.598791 58.2459 0.972125 56.5286 1.83079 54.6246C2.68946 52.7206 4.01479 50.6673 5.80679 48.4646C7.59879 46.2993 9.67079 44.2646 12.0228 42.3606C18.1081 37.4699 24.7348 34.2966 31.9028 32.8406C39.1081 31.3846 45.5855 31.9633 51.3348 34.5766C71.0468 18.0379 80.1375 8.64861 78.6068 6.40861C78.2708 5.81127 76.6841 5.6806 73.8468 6.0166C71.0095 6.31527 68.1535 6.94994 65.2788 7.92061C63.3001 8.59261 62.2361 8.77927 62.0868 8.48061C61.6761 7.99527 62.3295 7.41661 64.0468 6.74461C67.1455 5.51261 70.8415 4.69127 75.1348 4.28061C77.6361 4.05661 79.3348 4.14994 80.2308 4.56061C83.9268 6.24061 79.4095 12.7553 66.6788 24.1046C64.7748 25.8219 62.0495 28.1926 58.5028 31.2166C55.7028 33.6433 53.9108 35.2113 53.1268 35.9206C53.1268 35.9579 53.1268 35.9766 53.1268 35.9766C53.3508 36.2379 53.5561 36.5366 53.7428 36.8726C53.9295 37.2086 54.1535 37.9179 54.4148 39.0006C54.6761 40.0833 54.7695 41.2219 54.6948 42.4166C54.6201 43.6113 54.2281 45.1793 53.5188 47.1206C52.8095 49.0619 51.7455 51.0966 50.3268 53.2246ZM3.17479 57.7606C2.95079 58.9179 2.85746 59.6833 2.89479 60.0566C2.93212 60.4299 3.11879 60.7659 3.45479 61.0646C4.50013 62.2219 6.36679 62.4086 9.05479 61.6246C11.7428 60.8406 14.7481 59.5339 18.0708 57.7046C21.3561 55.8753 24.8281 53.7099 28.4868 51.2086C32.1455 48.7446 35.4681 46.3926 38.4548 44.1526C41.4415 41.9499 43.9615 40.0646 46.0148 38.4966C48.1055 36.9286 49.2068 36.1446 49.3188 36.1446C47.0788 34.8753 44.3348 34.2033 41.0868 34.1286C37.8761 34.0166 34.5535 34.4459 31.1188 35.4166C27.7215 36.3499 24.3801 37.6193 21.0948 39.2246C17.8095 40.8299 14.8041 42.7713 12.0788 45.0486C9.35346 47.3259 7.24413 49.6593 5.75079 52.0486C4.81746 53.4299 4.22012 54.4379 3.95879 55.0726C3.66012 55.7073 3.39879 56.6033 3.17479 57.7606Z" fill="#2D4193"/>
<path d="M75.7368 33.6246C73.8701 34.8193 71.6675 35.9206 69.1288 36.9286C66.5528 37.9366 64.6675 38.1419 63.4728 37.5446C62.9128 37.2086 62.5955 36.7233 62.5208 36.0886C62.4088 35.4539 62.5768 34.8379 63.0248 34.2406C63.5475 33.4193 64.6301 32.3926 66.2728 31.1606C67.8781 29.8913 69.5395 28.7713 71.2568 27.8006C72.9741 26.8299 74.2248 26.3259 75.0088 26.2886C75.6808 26.2139 76.3528 26.1393 77.0248 26.0646C77.6968 25.9899 78.1821 25.9339 78.4808 25.8966C78.7795 25.8593 79.0781 25.8406 79.3768 25.8406C79.6755 25.8406 79.9181 25.8966 80.1048 26.0086C80.2915 26.0833 80.4781 26.2326 80.6648 26.4566C81.0008 26.7926 81.2248 27.1286 81.3368 27.4646C81.4488 27.8006 81.4301 28.1179 81.2808 28.4166C81.1688 28.7153 81.0381 28.9953 80.8888 29.2566C80.7395 29.4806 80.5528 29.7233 80.3288 29.9846C80.1048 30.2086 79.9741 30.3579 79.9368 30.4326H80.9448C81.3555 30.4326 81.9715 30.3766 82.7928 30.2646C83.6141 30.1526 84.4915 30.0033 85.4248 29.8166C86.3581 29.5926 87.3475 29.3686 88.3928 29.1446C89.4381 28.9206 90.4275 28.7153 91.3608 28.5286C92.3315 28.3419 93.1901 28.1926 93.9368 28.0806C94.7208 27.9686 95.3368 27.9313 95.7848 27.9686C96.2701 27.9686 96.5128 28.0619 96.5128 28.2486C96.5128 28.5846 95.5981 29.0699 93.7688 29.7046C91.9395 30.3393 89.7368 30.9179 87.1608 31.4406C84.6221 31.9633 82.4568 32.2433 80.6648 32.2806C79.2461 32.3553 78.2755 32.4673 77.7528 32.6166C77.2675 32.7286 76.5955 33.0646 75.7368 33.6246ZM76.0168 29.7046C76.9128 30.1526 77.7715 29.9659 78.5928 29.1446C79.4888 28.2113 79.4701 27.7259 78.5368 27.6886C77.6035 27.6886 76.7821 27.9873 76.0728 28.5846C75.6248 29.0326 75.6061 29.4059 76.0168 29.7046ZM73.7768 29.5926L73.3848 28.5286C73.3475 28.5286 72.8621 28.8459 71.9288 29.4806C70.9955 30.1153 69.9875 30.8059 68.9048 31.5526C67.8221 32.2993 66.8328 33.0646 65.9368 33.8486C65.0035 34.5953 64.5181 35.1179 64.4808 35.4166C64.4808 35.9766 65.6568 35.8459 68.0088 35.0246L68.6808 34.8006C70.0621 34.3153 71.4621 33.6806 72.8808 32.8966C74.2995 32.1126 75.0088 31.6086 75.0088 31.3846C75.0088 31.2353 74.9528 31.1233 74.8408 31.0486C74.7288 30.9739 74.5608 30.8246 74.3368 30.6006C74.1128 30.3766 73.9261 30.0406 73.7768 29.5926Z" fill="#2D4193"/>
<path d="M99.8864 31.3846C97.1237 32.3553 94.417 33.5126 91.7664 34.8566C89.0784 36.1633 87.081 37.1899 85.7744 37.9366C84.4304 38.6833 83.6837 39.0379 83.5344 39.0006C83.049 38.8886 82.7317 38.7393 82.5824 38.5526C82.433 38.3286 82.4704 38.0486 82.6944 37.7126C82.881 37.3766 83.1237 37.0593 83.4224 36.7606C83.6837 36.4619 84.0757 36.0886 84.5984 35.6406C85.4197 35.0059 87.417 33.5499 90.5904 31.2726C93.7264 28.9953 97.4597 26.3073 101.79 23.2086C106.121 20.1099 109.481 17.7019 111.87 15.9846C113.625 14.6779 115.1 13.6139 116.294 12.7926C117.526 11.9713 118.553 11.3366 119.374 10.8886C120.233 10.4406 120.868 10.1979 121.278 10.1606C121.689 10.0859 121.988 10.1606 122.174 10.3846C122.212 10.4593 121.82 10.8326 120.998 11.5046C120.177 12.1766 119.057 13.0353 117.638 14.0806C116.257 15.0886 114.67 16.2459 112.878 17.5526C111.086 18.8219 109.238 20.1286 107.334 21.4726C105.468 22.8166 103.62 24.1419 101.79 25.4486C99.9984 26.7179 98.393 27.8566 96.9744 28.8646C95.5557 29.8726 94.417 30.7126 93.5584 31.3846C92.6624 32.0193 92.2144 32.3739 92.2144 32.4486C92.2144 32.4859 93.017 32.1873 94.6224 31.5526C96.1904 30.8806 97.9824 30.1899 99.9984 29.4806C102.014 28.7713 103.452 28.4166 104.31 28.4166C104.796 28.4166 105.225 28.5846 105.598 28.9206C105.972 29.2566 106.158 29.6299 106.158 30.0406C106.158 30.2646 106.028 30.5819 105.766 30.9926C105.505 31.3659 104.945 32.1499 104.086 33.3446C103.265 34.5393 102.462 35.7153 101.678 36.8726L102.686 36.6486C103.022 36.5739 104.18 36.0699 106.158 35.1366C108.137 34.1659 110.209 33.1393 112.374 32.0566C114.577 30.9739 116.593 30.0033 118.422 29.1446C120.252 28.2486 121.204 27.8379 121.278 27.9126C122.137 28.3233 121.372 29.2006 118.982 30.5446C117.265 31.5153 114.708 32.7846 111.31 34.3526C110.788 34.6139 110.06 34.9686 109.126 35.4166C107.334 36.2753 106.065 36.8726 105.318 37.2086C104.609 37.5446 103.844 37.8619 103.022 38.1606C102.238 38.4593 101.678 38.6086 101.342 38.6086C101.044 38.5713 100.764 38.4406 100.502 38.2166C99.9424 37.7313 99.6624 37.3766 99.6624 37.1526C99.6624 36.8166 99.9797 36.1259 100.614 35.0806C101.249 33.9979 101.94 32.9899 102.686 32.0566C103.582 30.9739 103.806 30.4139 103.358 30.3766C102.948 30.3766 101.79 30.7126 99.8864 31.3846Z" fill="#2D4193"/>
<path d="M131.988 30.1526C131.801 29.6673 130.924 29.5926 129.356 29.9286C127.788 30.2646 125.772 30.9926 123.308 32.1126C120.881 33.1953 118.753 34.3339 116.924 35.5286C114.871 36.9846 113.825 37.1339 113.788 35.9766C113.788 35.4166 115.188 33.6806 117.988 30.7686C119.929 28.7526 121.18 27.5206 121.74 27.0726C122.3 26.6246 122.692 26.5126 122.916 26.7366C123.215 27.0353 123.364 27.2966 123.364 27.5206C123.364 27.7073 123.271 27.9313 123.084 28.1926C122.935 28.4166 122.561 28.8646 121.964 29.5366C121.367 30.1339 120.881 30.6566 120.508 31.1046L123.364 29.8726C128.628 27.5579 131.969 27.0166 133.388 28.2486C133.687 28.5473 133.817 29.1446 133.78 30.0406C133.743 30.8993 133.575 31.8886 133.276 33.0086C132.641 35.3233 132.641 36.4806 133.276 36.4806C134.545 36.4806 138.577 34.7819 145.372 31.3846C146.641 30.7126 147.873 30.0966 149.068 29.5366C150.263 28.9766 151.196 28.5659 151.868 28.3046C152.577 28.0059 152.951 27.8753 152.988 27.9126C153.1 28.0993 153.1 28.2859 152.988 28.4726C152.913 28.6593 152.577 28.9579 151.98 29.3686C151.42 29.7793 150.617 30.2833 149.572 30.8806C148.564 31.4406 147.164 32.2059 145.372 33.1766C140.407 35.8646 137.009 37.5073 135.18 38.1046C133.388 38.6646 132.081 38.5153 131.26 37.6566C130.849 37.2459 130.644 36.7046 130.644 36.0326C130.644 35.3233 130.756 34.6513 130.98 34.0166C131.204 33.3819 131.428 32.6913 131.652 31.9446C131.876 31.1606 131.988 30.5633 131.988 30.1526Z" fill="#2D4193"/>
<path d="M184.039 17.6086C188.407 15.0326 194.697 11.8966 202.911 8.20061C217.769 1.51794 226.207 -0.759394 228.223 1.3686C228.447 1.62994 228.596 1.92861 228.671 2.26461C228.745 3.34727 227.625 4.98994 225.311 7.19261C222.996 9.35794 218.124 13.3153 210.695 19.0646C204.871 23.6939 200.652 27.1099 198.039 29.3126C195.463 31.4779 193.82 32.9526 193.111 33.7366C192.401 34.5206 191.748 35.4539 191.151 36.5366C191.039 36.7606 190.945 36.9473 190.871 37.0966C190.199 38.4033 189.079 40.1206 187.511 42.2486C185.943 44.4139 184.244 46.5046 182.415 48.5206C180.623 50.5366 178.887 52.0859 177.207 53.1686C175.527 54.2886 174.313 54.4939 173.567 53.7846C173.193 53.4486 173.137 52.8886 173.399 52.1046C173.66 51.3579 174.071 50.5366 174.631 49.6406C175.191 48.7819 175.937 47.7926 176.871 46.6726C177.804 45.5899 178.719 44.5446 179.615 43.5366C180.548 42.5286 181.5 41.5206 182.471 40.5126C183.479 39.5419 184.319 38.7393 184.991 38.1046C185.663 37.4699 186.223 36.9659 186.671 36.5926C188.649 34.9126 189.881 33.6993 190.367 32.9526C190.889 32.1686 191.244 30.9739 191.431 29.3686C191.505 28.4353 191.505 27.7446 191.431 27.2966C191.356 26.8486 191.113 26.3633 190.703 25.8406C190.255 25.1686 189.695 24.5713 189.023 24.0486C188.388 23.4886 187.716 23.0406 187.007 22.7046C186.297 22.3313 185.663 22.0326 185.103 21.8086C184.543 21.5846 183.983 21.3793 183.423 21.1926C182.9 21.0059 182.62 20.9126 182.583 20.9126C182.583 20.9126 181.817 21.3793 180.287 22.3126C178.793 23.2459 176.833 24.4966 174.407 26.0646C171.98 27.6326 169.385 29.3499 166.623 31.2166C163.897 33.0833 161.041 35.1366 158.055 37.3766C155.068 39.6166 152.511 41.7073 150.383 43.6486C149.636 44.2833 149.057 44.7686 148.647 45.1046C148.236 45.4406 147.863 45.7019 147.527 45.8886C147.191 46.0753 146.967 46.1313 146.855 46.0566C146.705 45.9819 146.575 45.8139 146.463 45.5526C146.313 45.2539 147.639 43.7793 150.439 41.1286C153.239 38.5153 155.777 36.3499 158.055 34.6326C160.369 32.9526 164.177 30.3206 169.479 26.7366C174.817 23.1153 177.711 21.2299 178.159 21.0806C178.383 20.8566 178.439 20.6886 178.327 20.5766C178.065 20.3899 176.553 20.4833 173.791 20.8566C171.065 21.1926 168.975 21.5846 167.519 22.0326C165.839 22.5553 163.001 23.7873 159.007 25.7286C157.065 26.6246 156.095 26.8299 156.095 26.3446C156.095 26.2699 156.095 26.2139 156.095 26.1766C156.169 25.7286 157.513 24.8326 160.127 23.4886C162.74 22.1073 164.999 21.1366 166.903 20.5766C169.105 19.8673 171.177 19.4006 173.119 19.1766C175.06 18.9526 176.553 18.8779 177.599 18.9526C178.644 18.9899 179.727 18.9339 180.847 18.7846C182.004 18.5979 183.068 18.2059 184.039 17.6086ZM187.175 39.2246C187.249 39.0753 187.1 39.1686 186.727 39.5046C184.487 41.4086 182.004 43.9099 179.279 47.0086C177.748 48.6886 176.721 50.0139 176.199 50.9846C175.937 51.3953 176.423 50.9846 177.655 49.7526C181.164 46.2433 184.095 43.0513 186.447 40.1766C186.857 39.6913 187.1 39.3739 187.175 39.2246ZM193.391 30.5446C193.465 30.4699 193.82 30.1526 194.455 29.5926C195.089 29.0326 195.5 28.6779 195.687 28.5286C195.911 28.3419 196.433 27.9126 197.255 27.2406C198.076 26.5313 198.897 25.8406 199.719 25.1686C200.54 24.4966 201.697 23.5633 203.191 22.3686C204.721 21.1739 206.457 19.8113 208.399 18.2806C212.02 15.6299 216.089 12.4006 220.607 8.59261C225.161 4.78461 226.879 2.78727 225.759 2.60061C223.78 2.33927 218.572 3.90727 210.135 7.30461C201.735 10.6646 194.081 14.2673 187.175 18.1126L184.711 19.5686C184.748 19.6059 184.991 19.7179 185.439 19.9046C185.924 20.0539 186.503 20.2966 187.175 20.6326C187.884 20.9686 188.593 21.3606 189.303 21.8086C190.049 22.2566 190.759 22.8166 191.431 23.4886C192.103 24.1606 192.588 24.8699 192.887 25.6166C193.223 26.5499 193.391 28.1926 193.391 30.5446Z" fill="#2D4193"/>
<path d="M209.002 39.7846C208.069 40.7179 207.285 40.8673 206.65 40.2326C206.053 39.6353 206.053 38.8513 206.65 37.8806C207.247 36.9099 207.901 36.6299 208.61 37.0406C208.871 37.1899 209.095 37.4513 209.282 37.8246C209.581 38.3099 209.711 38.6459 209.674 38.8326C209.637 38.9819 209.413 39.2993 209.002 39.7846Z" fill="#2D4193"/>
</svg>
