<svg width="21" height="13" viewBox="0 0 21 13" fill="none" xmlns="http://www.w3.org/2000/svg">
<path d="M6.41016 0.1875L6.78516 0.515625C6.97266 0.75 6.97266 1.07812 6.78516 1.3125L2.84766 5.20312H20.4258C20.7539 5.20312 20.9883 5.48438 20.9883 5.76562V6.23438C20.9883 6.5625 20.7539 6.79688 20.4258 6.79688H2.84766L6.78516 10.7344C6.97266 10.9688 6.97266 11.2969 6.78516 11.5312L6.41016 11.8594C6.22266 12.0938 5.84766 12.0938 5.61328 11.8594L0.175781 6.42188C-0.0585938 6.1875 -0.0585938 5.85938 0.175781 5.625L5.61328 0.1875C5.84766 -0.046875 6.22266 -0.046875 6.41016 0.1875Z" fill="black"/>
</svg>
