<svg width="15" height="15" viewBox="0 0 15 15" fill="none" xmlns="http://www.w3.org/2000/svg">
<path d="M0.234375 7.375C0.234375 11.3887 3.48633 14.6406 7.5 14.6406C11.5137 14.6406 14.7656 11.3887 14.7656 7.375C14.7656 3.36133 11.5137 0.109375 7.5 0.109375C3.48633 0.109375 0.234375 3.36133 0.234375 7.375ZM13.3594 7.375C13.3594 10.627 10.7227 13.2344 7.5 13.2344C4.24805 13.2344 1.64062 10.627 1.64062 7.375C1.64062 4.15234 4.24805 1.51562 7.5 1.51562C10.7227 1.51562 13.3594 4.15234 13.3594 7.375ZM7.79297 3.5957C7.67578 3.44922 7.44141 3.44922 7.29492 3.5957L6.73828 4.15234C6.5918 4.29883 6.5918 4.5332 6.73828 4.65039L8.78906 6.61328H4.10156C3.89648 6.61328 3.75 6.78906 3.75 6.96484V7.78516C3.75 7.99023 3.89648 8.13672 4.10156 8.13672H8.78906L6.73828 10.1289C6.5918 10.2461 6.5918 10.4805 6.73828 10.627L7.29492 11.1836C7.44141 11.3301 7.67578 11.3301 7.79297 11.1836L11.3672 7.63867C11.5137 7.49219 11.5137 7.28711 11.3672 7.14062L7.79297 3.5957Z" fill="#E83136"/>
</svg>
