<svg width="28" height="28" viewBox="0 0 28 28" fill="none" xmlns="http://www.w3.org/2000/svg">
<path d="M2.5625 13.8438C2.5625 13.8906 2.5625 13.9375 2.5625 13.9375C2.5625 14.2656 2.79688 14.5 3.125 14.5H5.79688C6.03125 14.5 6.26562 14.3125 6.35938 14.0781C7.20312 10.6562 10.3438 8.17188 13.9531 8.125C14 8.125 14 8.125 14 8.125C15.6875 8.125 18.125 9.10938 19.3438 10.2812L17.375 12.2031C16.6719 12.9531 17.1875 14.125 18.1719 14.125H24.5C25.1094 14.125 25.625 13.6562 25.625 13V6.71875C25.625 5.73438 24.4062 5.21875 23.7031 5.92188L22.0156 7.60938C20.1406 5.82812 16.5781 4.375 14 4.375C8.28125 4.375 3.54688 8.45312 2.5625 13.8438Z" fill="#FAFCFF"/>
<path opacity="0.5" d="M2.375 25.3281C2.375 26.3125 3.54688 26.8281 4.29688 26.0781L5.9375 24.4375C7.8125 26.2188 11.375 27.625 13.9531 27.625H14C19.6719 27.625 24.4062 23.5938 25.3906 18.2031C25.3906 18.1562 25.3906 18.1094 25.3906 18.0625C25.3906 17.7812 25.1562 17.5 24.8281 17.5H22.1562C21.9219 17.5469 21.6875 17.7344 21.5938 17.9688C20.75 21.3906 17.6094 23.875 14 23.875C13.9531 23.9219 13.9531 23.9219 13.9531 23.9219C12.2656 23.9219 9.82812 22.9375 8.60938 21.7656L10.5781 19.7969C11.2812 19.0938 10.7656 17.875 9.78125 17.875H3.5C2.84375 17.875 2.375 18.3906 2.375 19V25.3281Z" fill="#FAFCFF"/>
</svg>
