<svg width="50" height="30" viewBox="0 0 50 30" fill="none" xmlns="http://www.w3.org/2000/svg">
<path d="M15.0539 0C7.05775 0.0532034 0.585938 6.53071 0.585938 14.5112C0.585938 22.5183 7.11123 29.0224 15.1475 29.0224C18.9183 29.0224 22.3547 27.5859 24.9488 25.245C25.4837 24.7662 25.9784 24.2474 26.4331 23.6888H23.4512C23.0501 23.21 22.689 22.7045 22.3681 22.1991H27.5161C27.8371 21.707 28.1179 21.1882 28.3719 20.6429H21.5257C21.2984 20.1508 21.0845 19.632 20.9106 19.1133H28.9736C29.455 17.6635 29.7224 16.1206 29.7224 14.5112C29.7224 13.4471 29.6021 12.4097 29.3882 11.3988H20.4827C20.5897 10.8801 20.7368 10.3747 20.8973 9.86922H28.9603C28.7864 9.33719 28.5725 8.81846 28.3318 8.31303H21.5123C21.753 7.79429 22.0338 7.27556 22.3414 6.78343H27.4894C27.1417 6.23809 26.7673 5.71936 26.3662 5.22723H23.5047C23.946 4.7085 24.4407 4.21637 24.9622 3.76414C22.3681 1.43649 18.9183 0 15.1475 0C15.1208 0 15.0806 0 15.0539 0Z" fill="#931B1D"/>
<path d="M49.2442 14.5245C49.2442 22.5449 42.7323 29.0357 34.6827 29.049C26.6464 29.049 20.1211 22.5582 20.1211 14.5378C20.1211 6.50411 26.633 0 34.6827 0C42.7189 0 49.2442 6.49081 49.2442 14.5245C49.2442 14.5112 49.2442 14.5112 49.2442 14.5245Z" fill="#F16622"/>
<path d="M49.2442 14.6847C49.2442 22.7051 42.7323 29.2092 34.6827 29.2092C26.6464 29.2092 20.1211 22.7184 20.1211 14.698V14.6847C20.1211 6.66426 26.633 0.160156 34.6827 0.160156C42.7189 0.160156 49.2442 6.65096 49.2442 14.6847C49.2442 14.6714 49.2442 14.6847 49.2442 14.6847Z" fill="#F7981D"/>
<path d="M15.0539 0.160156C7.05775 0.21336 0.585938 6.70416 0.585938 14.6847C0.585938 22.6918 7.11123 29.1959 15.1475 29.1959C18.9183 29.1959 22.3547 27.7594 24.9488 25.4184C25.4837 24.9396 25.9784 24.4209 26.4331 23.8622H23.4512C23.0501 23.3834 22.689 22.878 22.3681 22.3725H27.5161C27.8371 21.8671 28.1179 21.3484 28.3719 20.8163H21.5257C21.2984 20.3109 21.0845 19.8055 20.9106 19.2867H28.9736C29.455 17.837 29.7224 16.2941 29.7224 14.6847C29.7224 13.6206 29.6021 12.5831 29.3882 11.5723H20.4827C20.5897 11.0535 20.7368 10.5481 20.8973 10.0427H28.9603C28.7864 9.51064 28.5725 8.99191 28.3318 8.48647H21.5123C21.753 7.96774 22.0338 7.44901 22.3414 6.95688H27.4894C27.1417 6.41155 26.7673 5.89281 26.3662 5.40068H23.5047C23.946 4.88195 24.4407 4.38982 24.9622 3.93759C22.3681 1.59665 18.9183 0.160156 15.1475 0.160156C15.1208 0.160156 15.0806 0.160156 15.0539 0.160156Z" fill="#CB2026"/>
<path d="M20.3896 18.3823L20.5902 17.0655C20.4832 17.0655 20.3227 17.1054 20.189 17.1054C19.6542 17.1054 19.5873 16.8261 19.6274 16.6133L20.0687 13.9265H20.8843L21.0849 12.4767H20.3094L20.4698 11.5723H18.9054C18.8652 11.6122 17.9961 16.6532 17.9961 17.265C17.9961 18.1695 18.5042 18.5818 19.2263 18.5685C19.7879 18.5818 20.2291 18.4222 20.3896 18.3823Z" fill="white"/>
<path d="M20.8691 15.8674C20.8691 18.0487 22.3133 18.5674 23.5434 18.5674C24.68 18.5674 25.1748 18.3147 25.1748 18.3147L25.4422 16.825C25.4422 16.825 24.5731 17.2107 23.7975 17.2107C22.1394 17.2107 22.4202 15.9738 22.4202 15.9738H25.5759C25.5759 15.9738 25.7765 14.9762 25.7765 14.5639C25.7765 13.5397 25.2684 12.3027 23.5702 12.3027C22.0325 12.3027 20.8691 13.9786 20.8691 15.8674ZM23.5969 13.686C24.4661 13.686 24.3056 14.6703 24.3056 14.7501H22.5807C22.5807 14.6437 22.7545 13.686 23.5969 13.686Z" fill="white"/>
<path d="M33.4127 18.3817L33.6935 16.6925C33.6935 16.6925 32.9313 17.0782 32.4099 17.0782C31.3134 17.0782 30.8721 16.2403 30.8721 15.3358C30.8721 13.5136 31.8215 12.5027 32.8779 12.5027C33.6668 12.5027 34.2952 12.9416 34.2952 12.9416L34.5493 11.3056C34.5493 11.3056 33.6133 10.9199 32.7976 10.9199C31.0059 10.9199 29.2676 12.4628 29.2676 15.3757C29.2676 17.3043 30.2036 18.5812 32.0622 18.5812C32.5837 18.5945 33.4127 18.3817 33.4127 18.3817Z" fill="white"/>
<path d="M11.857 12.3301C10.7873 12.3301 9.98498 12.6759 9.98498 12.6759L9.75767 14.006C9.75767 14.006 10.4262 13.74 11.4425 13.74C12.0174 13.74 12.4453 13.8065 12.4453 14.272C12.4453 14.5513 12.3919 14.6577 12.3919 14.6577C12.3919 14.6577 11.9372 14.6178 11.7233 14.6178C10.3861 14.6178 8.96875 15.1898 8.96875 16.9056C8.96875 18.2623 9.89138 18.5682 10.4664 18.5682C11.5628 18.5682 12.0308 17.8632 12.0576 17.8632L12.0041 18.4485H13.368L13.9831 14.1922C13.9831 12.3833 12.4052 12.3301 11.857 12.3301ZM12.1913 15.7883C12.218 16.0543 12.0308 17.2647 11.0948 17.2647C10.6134 17.2647 10.4931 16.8923 10.4931 16.6795C10.4931 16.2538 10.7204 15.7484 11.857 15.7484C12.1111 15.7617 12.1378 15.7883 12.1913 15.7883Z" fill="white"/>
<path d="M15.4414 18.5416C15.7891 18.5416 17.7814 18.6347 17.7814 16.573C17.7814 14.6577 15.9362 15.0301 15.9362 14.2587C15.9362 13.873 16.2437 13.7533 16.792 13.7533C17.0059 13.7533 17.8483 13.8198 17.8483 13.8198L18.0489 12.4498C18.0489 12.4498 17.5006 12.3301 16.6181 12.3301C15.4682 12.3301 14.3048 12.7823 14.3048 14.3518C14.3048 16.1208 16.2437 15.9479 16.2437 16.6928C16.2437 17.1849 15.6955 17.2248 15.281 17.2248C14.5589 17.2248 13.9037 16.9721 13.9037 16.9854L13.7031 18.3421C13.7299 18.3554 14.131 18.5416 15.4414 18.5416Z" fill="white"/>
<path d="M46.2636 11.1067L45.9293 13.1683C45.9293 13.1683 45.3409 12.3703 44.4317 12.3703C43.0143 12.3703 41.8242 14.0728 41.8242 16.0413C41.8242 17.3049 42.4527 18.5418 43.7497 18.5418C44.6723 18.5418 45.1938 17.8901 45.1938 17.8901L45.127 18.4354H46.638L47.828 11.0801L46.2636 11.1067ZM45.5415 15.1368C45.5415 15.9482 45.1404 17.0389 44.2979 17.0389C43.7363 17.0389 43.4823 16.5733 43.4823 15.8418C43.4823 14.6447 44.0171 13.8467 44.6991 13.8467C45.2473 13.86 45.5415 14.2457 45.5415 15.1368Z" fill="white"/>
<path d="M3.4605 18.4608L4.40988 12.9144L4.54359 18.4608H5.61332L7.60567 12.9144L6.72315 18.4608H8.31436L9.53117 11.1055H7.08418L5.55983 15.6145L5.4796 11.1055H3.20644L1.96289 18.4608H3.4605Z" fill="white"/>
<path d="M27.3552 18.475C27.8098 15.9212 27.89 13.833 28.9731 14.2187C29.1603 13.2344 29.3475 12.8487 29.5481 12.4231C29.5481 12.4231 29.4545 12.3965 29.2539 12.3965C28.5586 12.3965 28.0505 13.3408 28.0505 13.3408L28.1842 12.4763H26.7401L25.7773 18.4617H27.3552V18.475Z" fill="white"/>
<path d="M36.9957 12.3301C35.926 12.3301 35.1237 12.6759 35.1237 12.6759L34.8963 14.006C34.8963 14.006 35.5649 13.74 36.5812 13.74C37.1561 13.74 37.584 13.8065 37.584 14.272C37.584 14.5513 37.5305 14.6577 37.5305 14.6577C37.5305 14.6577 37.0759 14.6178 36.862 14.6178C35.5248 14.6178 34.1074 15.1898 34.1074 16.9056C34.1074 18.2623 35.0301 18.5682 35.605 18.5682C36.7015 18.5682 37.1695 17.8632 37.1963 17.8632L37.1428 18.4485H38.5067L39.1218 14.1922C39.1218 12.3833 37.5439 12.3301 36.9957 12.3301ZM37.33 15.7883C37.3567 16.0543 37.1695 17.2647 36.2335 17.2647C35.7521 17.2647 35.6318 16.8923 35.6318 16.6795C35.6318 16.2538 35.8591 15.7484 36.9957 15.7484C37.2497 15.7617 37.2765 15.7883 37.33 15.7883Z" fill="white"/>
<path d="M40.3669 18.475C40.8215 15.9212 40.9018 13.833 41.9849 14.2187C42.1721 13.2344 42.3593 12.8487 42.5598 12.4231C42.5598 12.4231 42.4662 12.3965 42.2657 12.3965C41.5703 12.3965 41.0622 13.3408 41.0622 13.3408L41.1959 12.4763H39.7518L38.7891 18.4617L40.3669 18.475Z" fill="white"/>
</svg>
