<svg width="92" height="23" viewBox="0 0 92 23" fill="none" xmlns="http://www.w3.org/2000/svg">
<g clip-path="url(#clip0)">
<path d="M70.8513 6.45312H65.9048C65.6139 6.45312 65.3229 6.72723 65.1774 7.00133L63.1406 19.0618C63.1406 19.3359 63.2861 19.473 63.5771 19.473H66.1958C66.4868 19.473 66.6323 19.3359 66.6323 19.0618L67.2142 15.6355C67.2142 15.3614 67.5052 15.0873 67.9416 15.0873H69.542C72.8881 15.0873 74.7794 13.5798 75.2159 10.5647C75.5068 9.3312 75.2159 8.23479 74.6339 7.54953C73.761 6.86428 72.4517 6.45312 70.8513 6.45312ZM71.4333 10.9758C71.1423 12.6204 69.8329 12.6204 68.5236 12.6204H67.6507L68.2326 9.46825C68.2326 9.3312 68.3781 9.19415 68.669 9.19415H68.96C69.8329 9.19415 70.7058 9.19415 71.1423 9.74235C71.4333 9.8794 71.4333 10.2906 71.4333 10.9758Z" fill="#139AD6"/>
<path d="M35.2068 6.45312H30.2603C29.9693 6.45312 29.6784 6.72723 29.5329 7.00133L27.4961 19.0618C27.4961 19.3359 27.6416 19.473 27.9325 19.473H30.2603C30.5513 19.473 30.8422 19.1989 30.9877 18.9248L31.5697 15.6355C31.5697 15.3614 31.8606 15.0873 32.2971 15.0873H33.8974C37.2436 15.0873 39.1349 13.5798 39.5713 10.5647C39.8623 9.3312 39.5713 8.23479 38.9894 7.54953C38.1165 6.86428 36.9526 6.45312 35.2068 6.45312ZM35.7887 10.9758C35.4978 12.6204 34.1884 12.6204 32.879 12.6204H32.1516L32.7335 9.46825C32.7335 9.3312 32.879 9.19415 33.17 9.19415H33.461C34.3339 9.19415 35.2068 9.19415 35.6432 9.74235C35.7887 9.8794 35.9342 10.2906 35.7887 10.9758Z" fill="#263B80"/>
<path d="M50.1919 10.8386H47.8641C47.7186 10.8386 47.4277 10.9756 47.4277 11.1127L47.2822 11.7979L47.1367 11.5238C46.5548 10.8386 45.5364 10.5645 44.3725 10.5645C41.7538 10.5645 39.426 12.4832 38.9896 15.0871C38.6986 16.4576 39.1351 17.6911 39.8625 18.5134C40.5899 19.3357 41.6083 19.6098 42.9177 19.6098C45.0999 19.6098 46.2638 18.3764 46.2638 18.3764L46.1183 19.0616C46.1183 19.3357 46.2638 19.4728 46.5548 19.4728H48.737C49.028 19.4728 49.319 19.1987 49.4645 18.9246L50.7738 11.2497C50.6283 11.1127 50.3374 10.8386 50.1919 10.8386ZM46.8457 15.2242C46.5548 16.4576 45.5364 17.417 44.0815 17.417C43.3541 17.417 42.7722 17.1429 42.4812 16.8688C42.1902 16.4576 42.0447 15.9094 42.0447 15.2242C42.1902 13.9907 43.3541 13.0314 44.6635 13.0314C45.3909 13.0314 45.8273 13.3055 46.2638 13.5796C46.7002 13.9907 46.8457 14.676 46.8457 15.2242Z" fill="#263B80"/>
<path d="M85.6899 10.8386H83.3622C83.2167 10.8386 82.9257 10.9756 82.9257 11.1127L82.7802 11.7979L82.6348 11.5238C82.0528 10.8386 81.0344 10.5645 79.8706 10.5645C77.2518 10.5645 74.9241 12.4832 74.4876 15.0871C74.1967 16.4576 74.6331 17.6911 75.3605 18.5134C76.088 19.3357 77.1063 19.6098 78.4157 19.6098C80.598 19.6098 81.7619 18.3764 81.7619 18.3764L81.6164 19.0616C81.6164 19.3357 81.7619 19.4728 82.0528 19.4728H84.2351C84.5261 19.4728 84.817 19.1987 84.9625 18.9246L86.2719 11.2497C86.1264 11.1127 85.9809 10.8386 85.6899 10.8386ZM82.3438 15.2242C82.0528 16.4576 81.0344 17.417 79.5796 17.417C78.8522 17.417 78.2702 17.1429 77.9793 16.8688C77.6883 16.4576 77.5428 15.9094 77.5428 15.2242C77.6883 13.9907 78.8522 13.0314 80.1615 13.0314C80.8889 13.0314 81.3254 13.3055 81.7619 13.5796C82.3438 13.9907 82.4893 14.676 82.3438 15.2242Z" fill="#139AD6"/>
<path d="M62.8489 10.8398H60.3756C60.0846 10.8398 59.9391 10.9769 59.7937 11.1139L56.593 15.7737L55.1381 11.388C54.9926 11.1139 54.8472 10.9769 54.4107 10.9769H52.0829C51.792 10.9769 51.6465 11.251 51.6465 11.5251L54.2652 18.7888L51.792 22.078C51.6465 22.3521 51.792 22.7633 52.0829 22.7633H54.4107C54.7017 22.7633 54.8472 22.6262 54.9926 22.4892L62.9943 11.6621C63.4308 11.251 63.1398 10.8398 62.8489 10.8398Z" fill="#263B80"/>
<path d="M88.4548 6.86498L86.418 19.1996C86.418 19.4737 86.5635 19.6107 86.8544 19.6107H88.8912C89.1822 19.6107 89.4732 19.3366 89.6186 19.0625L91.6554 7.00203C91.6554 6.72793 91.5099 6.59088 91.219 6.59088H88.8912C88.7457 6.45382 88.6002 6.59087 88.4548 6.86498Z" fill="#139AD6"/>
<path d="M16.7308 2.34188C15.7124 1.24547 13.8211 0.697266 11.2023 0.697266H3.92809C3.49164 0.697266 3.05518 1.10842 2.9097 1.51957L0 19.4732C0 19.8844 0.29097 20.1585 0.58194 20.1585H5.09197L6.25585 13.443V13.7171C6.40134 13.306 6.83779 12.8948 7.27424 12.8948H9.45652C13.6756 12.8948 16.8762 11.2502 17.8946 6.72751C17.8946 6.59046 17.8946 6.45341 17.8946 6.31636C17.7492 6.31636 17.7492 6.31636 17.8946 6.31636C18.0401 4.53469 17.7492 3.43829 16.7308 2.34188Z" fill="#263B80"/>
<path d="M17.7499 6.31641C17.7499 6.45346 17.7499 6.59051 17.7499 6.72756C16.7315 11.3873 13.5308 12.8949 9.31177 12.8949H7.12949C6.69304 12.8949 6.25658 13.306 6.1111 13.7172L4.65625 22.0773C4.65625 22.3514 4.80173 22.6255 5.23819 22.6255H9.0208C9.45725 22.6255 9.89371 22.3514 9.89371 21.9402V21.8032L10.6211 17.5546V17.2805C10.6211 16.8693 11.0576 16.5952 11.494 16.5952H12.076C15.7131 16.5952 18.6228 15.2247 19.3502 11.1132C19.6412 9.46858 19.4957 7.96102 18.6228 7.00166C18.4773 6.72756 18.1863 6.45346 17.7499 6.31641Z" fill="#139AD6"/>
<path d="M16.7308 5.90529C16.5853 5.90529 16.4398 5.76824 16.2943 5.76824C16.1488 5.76824 16.0033 5.76824 15.8579 5.63119C15.2759 5.49414 14.694 5.49414 13.9666 5.49414H8.29265C8.14716 5.49414 8.00168 5.49414 7.85619 5.63119C7.56522 5.76824 7.41974 6.04234 7.41974 6.31645L6.25586 13.4431V13.7172C6.40134 13.306 6.8378 12.8949 7.27425 12.8949H9.45653C13.6756 12.8949 16.8763 11.2503 17.8946 6.7276C17.8946 6.59055 17.8946 6.4535 18.0401 6.31645C17.7492 6.1794 17.6037 6.04234 17.3127 6.04234C16.8763 5.90529 16.8763 5.90529 16.7308 5.90529Z" fill="#232C65"/>
</g>
<defs>
<clipPath id="clip0">
<rect width="91.6555" height="22.0652" fill="white" transform="translate(0 0.697266)"/>
</clipPath>
</defs>
</svg>
