<svg width="48" height="13" viewBox="0 0 48 13" fill="none" xmlns="http://www.w3.org/2000/svg">
<path d="M21.3016 7.15381C21.4155 7.09116 21.4497 6.98865 21.5067 6.90892C22.2131 5.86673 22.9253 4.82453 23.626 3.77665C23.8083 3.50328 24.0248 3.37799 24.3553 3.38938C24.8395 3.41216 25.3238 3.39508 25.808 3.39508C25.9675 3.39508 26.11 3.41216 26.1897 3.57732C26.2695 3.73678 26.1897 3.85068 26.1043 3.97028C24.19 6.73807 22.2701 9.50586 20.3559 12.2737C20.2134 12.4787 20.0311 12.5698 19.7805 12.5641C19.2677 12.5584 18.755 12.5584 18.2422 12.5641C18.0827 12.5641 17.9403 12.547 17.8548 12.3876C17.7808 12.2338 17.8491 12.1142 17.9346 11.9946C18.4644 11.2429 18.9886 10.4911 19.5355 9.74506C19.6608 9.5742 19.6836 9.43183 19.6153 9.22681C19.0114 7.48412 18.4189 5.73574 17.8264 3.98736C17.6725 3.53176 17.7637 3.39508 18.2422 3.39508C18.7151 3.39508 19.1937 3.39508 19.6665 3.39508C20.0482 3.39508 20.1964 3.50328 20.3046 3.86777C20.6122 4.88149 20.9142 5.9009 21.2161 6.91462C21.2503 6.99435 21.2788 7.06838 21.3016 7.15381Z" fill="#002F85"/>
<path d="M45.9345 0.0129255C46.1909 0.0129255 46.4473 0.00723051 46.7036 0.0129255C46.9942 0.0186206 47.0967 0.138216 47.0512 0.428663C46.8347 1.85242 46.6068 3.27618 46.3846 4.69425C46.1282 6.32303 45.8662 7.95181 45.6155 9.5749C45.5414 10.0419 45.4047 10.1729 44.9261 10.1729C44.516 10.1729 44.1115 10.1729 43.7013 10.1729C43.3253 10.1729 43.2284 10.059 43.2911 9.6831C43.462 8.59535 43.6329 7.51329 43.8038 6.42554C44.1229 4.41519 44.4419 2.40484 44.7552 0.388798C44.8008 0.109741 44.9204 -0.0155499 45.1996 0.00153521C45.4389 0.0186203 45.6896 0.0129255 45.9345 0.0129255Z" fill="#009BDD"/>
<path d="M34.9157 2.10928C34.8189 1.15252 34.2434 0.554537 33.349 0.241309C32.9445 0.0989335 32.5229 0.0248979 32.0956 0.0192028C30.8423 0.0135078 29.5889 0.0078125 28.3355 0.0078125C27.7544 0.0078125 27.6405 0.116019 27.5493 0.696913C27.2417 2.68448 26.9283 4.66636 26.615 6.64823C26.4555 7.65625 26.2902 8.66997 26.1307 9.67799C26.0681 10.0709 26.1649 10.1678 26.5751 10.1678C27.0594 10.1678 27.5436 10.1678 28.0279 10.1678C28.5634 10.1678 28.6147 10.1165 28.6944 9.58687C28.8084 8.82943 28.928 8.07199 29.0477 7.31455C29.1103 6.92729 29.2698 6.79061 29.6572 6.79061C29.9307 6.78491 30.2099 6.79061 30.4833 6.79061C30.4833 6.7963 30.4833 6.7963 30.4833 6.802C30.8081 6.78491 31.1271 6.77922 31.4518 6.74505C32.4033 6.63684 33.2749 6.335 33.913 5.58326C34.7562 4.58663 35.041 3.39636 34.9157 2.10928ZM30.8081 4.71761C30.5802 4.7347 30.3523 4.75178 30.1301 4.76887C29.4522 4.75748 29.4522 4.75748 29.5604 4.09685C29.6516 3.52735 29.7484 2.95784 29.8339 2.38264C29.8623 2.18901 29.9478 2.04664 30.1472 2.04094C30.5916 2.02955 31.0416 2.01247 31.4746 2.12067C31.9703 2.24596 32.2153 2.53072 32.2153 3.02618C32.2039 4.00573 31.8165 4.63788 30.8081 4.71761Z" fill="#009BDD"/>
<path d="M8.71764 1.7045C8.4043 0.685087 7.6067 0.269348 6.63819 0.0928019C5.81211 -0.0552692 4.96894 0.0358518 4.27959 0.0130716C3.44211 0.0130716 2.75276 0.0130716 2.05771 0.0130716C1.6874 0.0130716 1.51649 0.161142 1.45952 0.51993C0.975261 3.58956 0.496703 6.65919 0.0124481 9.72882C-0.038826 10.0591 0.0637218 10.1787 0.405549 10.1787C0.929684 10.1787 1.44812 10.1844 1.97226 10.1787C2.33117 10.1787 2.49069 10.0477 2.55336 9.68896C2.68439 8.89734 2.80973 8.10004 2.94077 7.30273C2.99774 6.93825 3.15726 6.79587 3.53327 6.79587C4.11437 6.79018 4.68978 6.79587 5.27089 6.75601C7.71495 6.58515 9.44118 4.06225 8.71764 1.7045ZM6.01721 3.68638C5.85769 4.28436 5.45889 4.60897 4.855 4.70009C4.57584 4.74566 4.29098 4.76274 3.92637 4.75135C3.78964 4.73426 3.50478 4.84817 3.37944 4.71148C3.28829 4.60897 3.41363 4.31853 3.44211 4.1135C3.52187 3.57248 3.60733 3.02575 3.69278 2.48472C3.75545 2.09746 3.82952 2.02912 4.23401 2.03481C4.63281 2.04051 5.03161 2.02342 5.41901 2.13732C5.85199 2.26261 6.06848 2.53598 6.08557 2.98019C6.09697 3.21938 6.07418 3.45288 6.01721 3.68638Z" fill="#002F85"/>
<path d="M16.5108 3.39623C16.1007 3.39053 15.6962 3.39623 15.286 3.39623C14.6251 3.39623 14.6251 3.39623 14.4713 4.01699C14.4656 4.03407 14.4542 4.05116 14.4257 4.09672C14.1921 3.71515 13.856 3.50444 13.4629 3.39053C12.8134 3.2026 12.1526 3.16273 11.4917 3.3108C9.82813 3.68098 8.60894 5.03071 8.34688 6.762C8.19875 7.75294 8.33548 8.68692 9.01344 9.45575C9.82813 10.3784 10.8935 10.4638 12.0215 10.2417C12.6197 10.1221 13.1211 9.81454 13.6053 9.38741C13.5939 9.5184 13.5939 9.60383 13.5825 9.68925C13.5256 10.0708 13.6167 10.1733 13.9927 10.1733C14.4086 10.1733 14.8302 10.1733 15.2461 10.1733C15.7645 10.1733 15.8956 10.0594 15.9753 9.55257C16.2773 7.64473 16.5792 5.73689 16.8755 3.82336C16.9267 3.5443 16.8071 3.40192 16.5108 3.39623ZM14.1522 6.762C13.9984 7.7928 13.1837 8.49329 12.1412 8.4819C11.0872 8.47051 10.5118 7.74155 10.7283 6.70505C10.9505 5.64577 11.8392 4.99654 12.9103 5.10474C13.7534 5.19017 14.2833 5.89635 14.1522 6.762Z" fill="#002F85"/>
<path d="M42.53 3.39599C42.1141 3.39599 41.6925 3.39599 41.2766 3.39599C40.7012 3.39599 40.6784 3.41877 40.5987 3.98258C40.593 4.01105 40.593 4.03953 40.5702 4.15913C40.2967 3.68644 39.915 3.47572 39.4706 3.36182C38.7699 3.18527 38.0634 3.17388 37.3627 3.37321C35.7903 3.81742 34.5939 5.28105 34.4401 6.93831C34.3603 7.78687 34.4857 8.58417 34.9927 9.29036C35.6308 10.1845 36.9069 10.5661 38.1489 10.2528C38.7471 10.1048 39.2655 9.8143 39.7555 9.3644C39.7327 9.50108 39.7156 9.56942 39.7042 9.64345C39.6301 10.0649 39.727 10.1788 40.1543 10.1788C40.5816 10.1788 41.0089 10.1788 41.4361 10.1788C41.8748 10.1788 42.0172 10.0421 42.0856 9.59789C42.228 8.69238 42.3762 7.78117 42.5186 6.87566C42.6781 5.88472 42.8376 4.89379 42.9857 3.89715C43.0484 3.4985 42.9459 3.39599 42.53 3.39599ZM40.234 6.95539C40.0005 7.90077 39.2484 8.48166 38.2685 8.48166C37.2544 8.47597 36.6904 7.82673 36.8329 6.81871C36.9924 5.69679 37.978 4.95074 39.0889 5.1102C39.9777 5.24118 40.4619 6.0214 40.234 6.95539Z" fill="#009BDD"/>
</svg>
