<svg width="18" height="18" viewBox="0 0 18 18" fill="none" xmlns="http://www.w3.org/2000/svg">
<path d="M9 0.53125C4.18359 0.53125 0.28125 4.43359 0.28125 9.25C0.28125 14.0664 4.18359 17.9688 9 17.9688C13.8164 17.9688 17.7188 14.0664 17.7188 9.25C17.7188 4.43359 13.8164 0.53125 9 0.53125ZM12.9727 8.65234C13.3242 9.00391 13.3242 9.53125 12.9727 9.84766L8.22656 14.6289C7.91016 14.9453 7.34766 14.9453 7.03125 14.6289L6.43359 14.0312C6.11719 13.7148 6.11719 13.1523 6.43359 12.8359L10.0195 9.25L6.43359 5.69922C6.11719 5.38281 6.11719 4.82031 6.43359 4.50391L7.03125 3.90625C7.34766 3.58984 7.91016 3.58984 8.22656 3.90625L12.9727 8.65234Z" fill="#CD3535"/>
</svg>
