<svg width="21" height="13" viewBox="0 0 21 13" fill="none" xmlns="http://www.w3.org/2000/svg">
<path d="M14.5781 0.1875L14.2031 0.515625C14.0156 0.75 14.0156 1.07812 14.2031 1.3125L18.1406 5.20312H0.5625C0.234375 5.20312 0 5.48438 0 5.76562V6.23438C0 6.5625 0.234375 6.79688 0.5625 6.79688H18.1406L14.2031 10.7344C14.0156 10.9688 14.0156 11.2969 14.2031 11.5312L14.5781 11.8594C14.7656 12.0938 15.1406 12.0938 15.375 11.8594L20.8125 6.42188C21.0469 6.1875 21.0469 5.85938 20.8125 5.625L15.375 0.1875C15.1406 -0.046875 14.7656 -0.046875 14.5781 0.1875Z" fill="black"/>
</svg>
