<svg width="21" height="19" viewBox="0 0 21 19" fill="none" xmlns="http://www.w3.org/2000/svg">
<path d="M15.75 8.125V7C15.75 6.40234 15.2227 5.875 14.625 5.875H11.25V3.625C11.25 1.79688 9.70312 0.25 7.875 0.25C6.01172 0.25 4.5 1.79688 4.5 3.625V5.875H1.125C0.492188 5.875 0 6.40234 0 7V16C0 16.6328 0.492188 17.125 1.125 17.125H5.625V9.25C5.625 8.65234 6.11719 8.125 6.75 8.125H15.75ZM6.1875 3.625C6.1875 2.71094 6.92578 1.9375 7.875 1.9375C8.78906 1.9375 9.5625 2.71094 9.5625 3.625V5.875H6.1875V3.625ZM19.125 9.25H7.875C7.24219 9.25 6.75 9.77734 6.75 10.375V17.125C6.75 17.7578 7.24219 18.25 7.875 18.25H19.125C19.7227 18.25 20.25 17.7578 20.25 17.125V10.375C20.25 9.77734 19.7227 9.25 19.125 9.25ZM16.875 12.625C16.8398 14.4883 15.3281 16.0352 13.4648 16.0352C13.3594 16.0352 13.1484 16 13.043 16C11.3555 15.7539 10.125 14.2422 10.125 12.5195V11.7812C10.125 11.6406 10.2305 11.5 10.4062 11.5H10.9688C11.1094 11.5 11.25 11.6406 11.25 11.7812V12.5547C11.25 13.7148 12.0938 14.7695 13.2539 14.875C13.3242 14.875 13.4297 14.9102 13.4648 14.9102C14.7305 14.9102 15.7148 13.8906 15.75 12.625V11.7812C15.75 11.6406 15.8555 11.5 16.0312 11.5H16.5938C16.7344 11.5 16.875 11.6406 16.875 11.7812V12.625Z" fill="#225B94"/>
</svg>
