<svg width="33" height="27" viewBox="0 0 33 27" fill="none" xmlns="http://www.w3.org/2000/svg">
<path opacity="0.5" d="M12.8438 8.375H2.28125C2.02734 8.375 1.875 8.57812 1.875 8.78125V9.59375C1.875 9.84766 2.02734 10 2.28125 10H12.8438C13.0469 10 13.25 9.84766 13.25 9.59375V8.78125C13.25 8.57812 13.0469 8.375 12.8438 8.375ZM11.625 12.8438V12.0312C11.625 11.8281 11.4219 11.625 11.2188 11.625H0.65625C0.402344 11.625 0.25 11.8281 0.25 12.0312V12.8438C0.25 13.0977 0.402344 13.25 0.65625 13.25H11.2188C11.4219 13.25 11.625 13.0977 11.625 12.8438ZM9.1875 18.125C6.90234 18.125 5.125 19.9531 5.125 22.1875C5.125 24.4727 6.90234 26.25 9.1875 26.25C11.4219 26.25 13.25 24.4727 13.25 22.1875C13.25 19.9531 11.4219 18.125 9.1875 18.125ZM23.8125 18.125C21.5273 18.125 19.75 19.9531 19.75 22.1875C19.75 24.4727 21.5273 26.25 23.8125 26.25C26.0469 26.25 27.875 24.4727 27.875 22.1875C27.875 19.9531 26.0469 18.125 23.8125 18.125ZM14.4688 5.125H0.65625C0.402344 5.125 0.25 5.32812 0.25 5.53125V6.34375C0.25 6.59766 0.402344 6.75 0.65625 6.75H14.4688C14.6719 6.75 14.875 6.59766 14.875 6.34375V5.53125C14.875 5.32812 14.6719 5.125 14.4688 5.125Z" fill="#F7981D"/>
<path d="M31.9375 18.125H31.125V12.6406C31.0742 12.082 30.7695 11.3203 30.3633 10.9141L25.3359 5.88672C24.9297 5.48047 24.168 5.17578 23.6094 5.125H21.375V2.6875C21.375 1.36719 20.2578 0.25 18.9375 0.25H5.9375C4.56641 0.25 3.5 1.36719 3.5 2.6875V5.125H14.4688C14.6719 5.125 14.875 5.32812 14.875 5.53125V6.34375C14.875 6.59766 14.6719 6.75 14.4688 6.75H3.5V8.375H12.8438C13.0469 8.375 13.25 8.57812 13.25 8.78125V9.59375C13.25 9.84766 13.0469 10 12.8438 10H3.5V11.625H11.2188C11.4219 11.625 11.625 11.8281 11.625 12.0312V12.8438C11.625 13.0977 11.4219 13.25 11.2188 13.25H3.5V18.9375V18.9883C3.5 19.3438 3.65234 19.9023 3.85547 20.207C4.56641 18.1758 7.00391 16.5 9.1875 16.5C11.8789 16.5 14.418 18.6836 14.7734 21.375H18.1758C18.5312 18.6836 21.0703 16.5 23.8125 16.5C26.5039 16.5 29.043 18.6836 29.3984 21.375H31.9375C32.3438 21.375 32.75 21.0195 32.75 20.5625V18.9375C32.75 18.5312 32.3438 18.125 31.9375 18.125ZM28.6875 13.25H21.375V7.5625H23.6094L28.6875 12.6406V13.25Z" fill="#F7981D"/>
</svg>
