<svg width="21" height="21" viewBox="0 0 21 21" fill="none" xmlns="http://www.w3.org/2000/svg">
<path opacity="0.5" d="M19.4062 3.5H5.58984L7.41797 12.5H17.7188C18.1055 12.5 18.457 12.2188 18.5625 11.8672L20.2148 4.55469C20.2148 4.48438 20.2148 4.41406 20.2148 4.37891C20.2148 3.99219 19.9336 3.60547 19.582 3.53516C19.5117 3.53516 19.4414 3.5 19.4062 3.5ZM15.6094 8.17578L13.2188 10.707C13.1484 10.7773 13.0078 10.8125 12.9375 10.8125C12.832 10.8125 12.6914 10.7773 12.6211 10.707L10.2305 8.17578C9.94922 7.89453 10.1602 7.4375 10.5469 7.4375H12.0586V5.60938C12.0586 5.39844 12.2695 5.1875 12.4805 5.1875H13.3594C13.5703 5.1875 13.7812 5.39844 13.7812 5.60938V7.4375H15.293C15.6797 7.4375 15.8906 7.89453 15.6094 8.17578Z" fill="white"/>
<path d="M17.7188 15.5234L17.8945 14.6797C17.9297 14.6094 17.9297 14.5391 17.9297 14.4688C17.9297 14.0117 17.543 13.6602 17.0859 13.625H7.66406L5.27344 1.95312C5.16797 1.56641 4.81641 1.28516 4.42969 1.25H0.84375C0.351562 1.25 0 1.63672 0 2.09375V2.65625C0 3.14844 0.351562 3.5 0.84375 3.5H3.26953L5.76562 15.5938C5.20312 15.9102 4.74609 16.6836 4.74609 17.3164C4.74609 18.3711 5.66016 19.2852 6.71484 19.2852C7.80469 19.2852 8.68359 18.3711 8.68359 17.3164C8.68359 16.8594 8.4375 16.2266 8.12109 15.875H15.4688C15.1523 16.2266 14.9062 16.8594 14.9062 17.3164C14.9062 18.3711 15.7852 19.2852 16.875 19.2852C17.9297 19.2852 18.8438 18.3711 18.8438 17.3164C18.8438 16.6133 18.3164 15.8398 17.7188 15.5234ZM12.6211 10.707C12.6914 10.7773 12.832 10.8125 12.9375 10.8125C13.0078 10.8125 13.1484 10.7773 13.2188 10.707L15.6094 8.17578C15.8906 7.89453 15.6797 7.4375 15.293 7.4375H13.7812V5.60938C13.7812 5.39844 13.5703 5.1875 13.3594 5.1875H12.4805C12.2695 5.1875 12.0586 5.39844 12.0586 5.60938V7.4375H10.5469C10.1602 7.4375 9.94922 7.89453 10.2305 8.17578L12.6211 10.707Z" fill="white"/>
</svg>
