<svg width="54" height="17" viewBox="0 0 54 17" fill="none" xmlns="http://www.w3.org/2000/svg">
<path d="M19.5293 16.4205L22.2186 1.29297H26.4207L23.8154 16.4205H19.5293Z" fill="#3C58BF"/>
<path d="M19.5293 16.4205L22.975 1.29297H26.4207L23.8154 16.4205H19.5293Z" fill="#293688"/>
<path d="M39.0264 1.4614C38.186 1.12523 36.8413 0.789062 35.1604 0.789062C30.9584 0.789062 27.9328 2.89011 27.9328 5.91562C27.9328 8.18475 30.0339 9.36133 31.7147 10.1177C33.3956 10.8741 33.8998 11.3783 33.8998 12.0507C33.8998 13.0592 32.5551 13.5634 31.3786 13.5634C29.6977 13.5634 28.7733 13.3113 27.3446 12.723L26.7563 12.4709L26.168 15.9166C27.1765 16.3368 29.0254 16.757 30.9584 16.757C35.4126 16.757 38.354 14.656 38.354 11.4624C38.354 9.6975 37.2615 8.35283 34.7402 7.26028C33.2275 6.50391 32.303 6.0837 32.303 5.32732C32.303 4.65499 33.0594 3.98265 34.7402 3.98265C36.1689 3.98265 37.1775 4.23478 37.9338 4.57095L38.354 4.73903L39.0264 1.4614Z" fill="#3C58BF"/>
<path d="M39.0264 1.4614C38.186 1.12523 36.8413 0.789062 35.1604 0.789062C30.9584 0.789062 28.6892 2.89011 28.6892 5.91562C28.6892 8.18475 30.0339 9.36133 31.7147 10.1177C33.3956 10.8741 33.8998 11.3783 33.8998 12.0507C33.8998 13.0592 32.5551 13.5634 31.3786 13.5634C29.6977 13.5634 28.7733 13.3113 27.3446 12.723L26.7563 12.4709L26.168 15.9166C27.1765 16.3368 29.0254 16.757 30.9584 16.757C35.4126 16.757 38.354 14.656 38.354 11.4624C38.354 9.6975 37.2615 8.35283 34.7402 7.26028C33.2275 6.50391 32.303 6.0837 32.303 5.32732C32.303 4.65499 33.0594 3.98265 34.7402 3.98265C36.1689 3.98265 37.1775 4.23478 37.9338 4.57095L38.354 4.73903L39.0264 1.4614Z" fill="#293688"/>
<path d="M46.2538 1.29297C45.2453 1.29297 44.489 1.37701 44.0688 2.38551L37.7656 16.4205H42.3039L43.1443 13.8992H48.523L49.0272 16.4205H53.0612L49.5315 1.29297H46.2538ZM44.3209 11.378C44.573 10.6216 46.0017 6.92377 46.0017 6.92377C46.0017 6.92377 46.3379 5.99931 46.59 5.41102L46.8421 6.83973C46.8421 6.83973 47.6826 10.6216 47.8506 11.462H44.3209V11.378Z" fill="#3C58BF"/>
<path d="M47.2623 1.29297C46.2538 1.29297 45.4975 1.37701 45.0773 2.38551L37.7656 16.4205H42.3039L43.1443 13.8992H48.523L49.0272 16.4205H53.0612L49.5315 1.29297H47.2623ZM44.3209 11.378C44.657 10.5376 46.0017 6.92377 46.0017 6.92377C46.0017 6.92377 46.3379 5.99931 46.59 5.41102L46.8421 6.83973C46.8421 6.83973 47.6826 10.6216 47.8506 11.462H44.3209V11.378Z" fill="#293688"/>
<path d="M11.7973 11.8822L11.3771 9.69709C10.6207 7.17584 8.18348 4.40246 5.49414 3.05779L9.27602 16.5045H13.8143L20.6217 1.37695H16.0834L11.7973 11.8822Z" fill="#3C58BF"/>
<path d="M11.7973 11.8822L11.3771 9.69709C10.6207 7.17584 8.18348 4.40246 5.49414 3.05779L9.27602 16.5045H13.8143L20.6217 1.37695H16.9238L11.7973 11.8822Z" fill="#293688"/>
<path d="M0.115234 1.29297L0.871611 1.46105C6.25029 2.72168 9.94813 5.91527 11.3768 9.69715L9.86409 2.5536C9.61197 1.54509 8.85559 1.29297 7.93113 1.29297H0.115234Z" fill="#FFBC00"/>
<path d="M0.115234 1.29297C5.49391 2.5536 9.94813 5.83123 11.3768 9.61311L9.94813 3.64614C9.69601 2.63764 8.85559 2.04935 7.93113 2.04935L0.115234 1.29297Z" fill="#F7981D"/>
<path d="M0.115234 1.29297C5.49391 2.5536 9.94813 5.83123 11.3768 9.61311L10.3683 6.33548C10.1162 5.32698 9.78005 4.31847 8.60346 3.89827L0.115234 1.29297Z" fill="#ED7C00"/>
<path d="M15.9993 11.3788L13.1419 8.52137L11.7972 11.715L11.4611 9.61392C10.7047 7.09266 8.26746 4.31928 5.57812 2.97461L9.36001 16.4213H13.8983L15.9993 11.3788Z" fill="#051244"/>
<path d="M23.8154 16.4205L20.2016 12.7227L19.5293 16.4205H23.8154Z" fill="#051244"/>
<path d="M33.4796 11.2109C33.8158 11.5471 33.9839 11.7992 33.8998 12.1354C33.8998 13.1439 32.5552 13.6482 31.3786 13.6482C29.6977 13.6482 28.7733 13.396 27.3446 12.8077L26.7563 12.5556L26.168 16.0013C27.1765 16.4215 29.0254 16.8417 30.9584 16.8417C33.6477 16.8417 35.8328 16.0854 37.0934 14.7407L33.4796 11.2109Z" fill="#051244"/>
<path d="M38.3555 16.4216H42.3054L43.1459 13.9003H48.5245L49.0288 16.4216H53.0628L51.6341 10.2865L46.5916 5.41211L46.8437 6.75678C46.8437 6.75678 47.6841 10.5387 47.8522 11.3791H44.3224C44.6586 10.5387 46.0033 6.92486 46.0033 6.92486C46.0033 6.92486 46.3394 6.0004 46.5916 5.41211" fill="#051244"/>
</svg>
