<svg width="14" height="15" viewBox="0 0 14 15" fill="none" xmlns="http://www.w3.org/2000/svg">
<path d="M11.7852 2.96484C13.1159 4.27734 13.7812 5.8724 13.7812 7.75C13.7812 9.6276 13.1159 11.2318 11.7852 12.5625C10.4727 13.875 8.8776 14.5312 7 14.5312C5.1224 14.5312 3.51823 13.875 2.1875 12.5625C0.875 11.2318 0.21875 9.6276 0.21875 7.75C0.21875 5.8724 0.875 4.27734 2.1875 2.96484C3.51823 1.63411 5.1224 0.96875 7 0.96875C8.8776 0.96875 10.4727 1.63411 11.7852 2.96484ZM6.20703 11.332L11.2383 6.30078C11.457 6.10026 11.457 5.89974 11.2383 5.69922L10.6367 5.07031C10.418 4.86979 10.2083 4.86979 10.0078 5.07031L5.90625 9.17188L3.99219 7.25781C3.79167 7.05729 3.58203 7.05729 3.36328 7.25781L2.76172 7.88672C2.54297 8.08724 2.54297 8.28776 2.76172 8.48828L5.60547 11.332C5.80599 11.5508 6.00651 11.5508 6.20703 11.332Z" fill="#FBDB85"/>
</svg>
